%
M48
M72
T01C0.0390
T02C0.0400
%
T01
X1350Y3100
X2350Y3100
X3350Y3100
X4350Y3100
X5350Y3100
X6350Y3100
X7350Y3100
X7350Y6100
X6350Y6100
X5350Y6100
X4350Y6100
X3350Y6100
X2350Y6100
X1350Y6100
T02
X1350Y1600
X2350Y1600
X3350Y1600
X4350Y1600
X5350Y1600
X6350Y1600
X7350Y1600
X9600Y2600
X10600Y2600
X11600Y2600
X11600Y3600
X10600Y3600
X9600Y3600
X9600Y4600
X10600Y4600
X11600Y4600
X11600Y5600
X10600Y5600
X9600Y5600
X7350Y4600
X6350Y4600
X5350Y4600
X4350Y4600
X3350Y4600
X2350Y4600
X1350Y4600
M30
