G75*
%MOIN*%
%OFA0B0*%
%FSLAX25Y25*%
%IPPOS*%
%LPD*%
%AMOC8*
5,1,8,0,0,1.08239X$1,22.5*
%
%ADD10OC8,0.08000*%
%ADD11R,0.06450X0.06450*%
%ADD12C,0.06450*%
%ADD13C,0.08000*%
D10*
X0096000Y0026000D03*
X0106000Y0026000D03*
X0116000Y0026000D03*
X0116000Y0036000D03*
X0106000Y0036000D03*
X0096000Y0036000D03*
X0096000Y0046000D03*
X0106000Y0046000D03*
X0116000Y0046000D03*
X0116000Y0056000D03*
X0106000Y0056000D03*
X0096000Y0056000D03*
D11*
X0013500Y0031000D03*
D12*
X0023500Y0031000D03*
X0033500Y0031000D03*
X0043500Y0031000D03*
X0053500Y0031000D03*
X0063500Y0031000D03*
X0073500Y0031000D03*
X0073500Y0061000D03*
X0063500Y0061000D03*
X0053500Y0061000D03*
X0043500Y0061000D03*
X0033500Y0061000D03*
X0023500Y0061000D03*
X0013500Y0061000D03*
D13*
X0013500Y0016000D03*
X0023500Y0016000D03*
X0033500Y0016000D03*
X0043500Y0016000D03*
X0053500Y0016000D03*
X0063500Y0016000D03*
X0073500Y0016000D03*
X0073500Y0046000D03*
X0063500Y0046000D03*
X0053500Y0046000D03*
X0043500Y0046000D03*
X0033500Y0046000D03*
X0023500Y0046000D03*
X0013500Y0046000D03*
M02*
