G75*
%MOIN*%
%OFA0B0*%
%FSLAX25Y25*%
%IPPOS*%
%LPD*%
%AMOC8*
5,1,8,0,0,1.08239X$1,22.5*
%
%ADD10C,0.00400*%
%ADD11C,0.00300*%
%ADD12C,0.00800*%
%ADD13C,0.00600*%
%ADD14C,0.00591*%
%ADD15C,0.00039*%
D10*
X0014616Y0003700D02*
X0014616Y0006769D01*
X0016151Y0008304D01*
X0017685Y0006769D01*
X0017685Y0003700D01*
X0019220Y0004467D02*
X0019987Y0003700D01*
X0022289Y0003700D01*
X0022289Y0006769D01*
X0023824Y0006769D02*
X0025359Y0006769D01*
X0024591Y0007537D02*
X0024591Y0004467D01*
X0025359Y0003700D01*
X0026893Y0004467D02*
X0027661Y0003700D01*
X0029195Y0003700D01*
X0029963Y0004467D01*
X0029963Y0006002D01*
X0029195Y0006769D01*
X0027661Y0006769D01*
X0026893Y0006002D01*
X0026893Y0004467D01*
X0031497Y0003700D02*
X0033032Y0003700D01*
X0032265Y0003700D02*
X0032265Y0008304D01*
X0033032Y0008304D02*
X0031497Y0008304D01*
X0034567Y0007537D02*
X0034567Y0006769D01*
X0035334Y0006002D01*
X0036868Y0006002D01*
X0037636Y0005235D01*
X0037636Y0004467D01*
X0036868Y0003700D01*
X0035334Y0003700D01*
X0034567Y0004467D01*
X0039170Y0003700D02*
X0039170Y0008304D01*
X0041472Y0008304D01*
X0042240Y0007537D01*
X0042240Y0006002D01*
X0041472Y0005235D01*
X0039170Y0005235D01*
X0037636Y0007537D02*
X0036868Y0008304D01*
X0035334Y0008304D01*
X0034567Y0007537D01*
X0043774Y0007537D02*
X0043774Y0006769D01*
X0044542Y0006002D01*
X0046076Y0006002D01*
X0046844Y0005235D01*
X0046844Y0004467D01*
X0046076Y0003700D01*
X0044542Y0003700D01*
X0043774Y0004467D01*
X0043774Y0005235D01*
X0044542Y0006002D01*
X0046076Y0006002D02*
X0046844Y0006769D01*
X0046844Y0007537D01*
X0046076Y0008304D01*
X0044542Y0008304D01*
X0043774Y0007537D01*
X0048378Y0006002D02*
X0051448Y0006002D01*
X0050680Y0008304D02*
X0048378Y0006002D01*
X0050680Y0003700D02*
X0050680Y0008304D01*
X0057586Y0006769D02*
X0059121Y0003700D01*
X0060655Y0006769D01*
X0062190Y0006769D02*
X0063725Y0008304D01*
X0063725Y0003700D01*
X0065259Y0003700D02*
X0062190Y0003700D01*
X0066794Y0003700D02*
X0067561Y0003700D01*
X0067561Y0004467D01*
X0066794Y0004467D01*
X0066794Y0003700D01*
X0069096Y0003700D02*
X0072165Y0006769D01*
X0072165Y0007537D01*
X0071398Y0008304D01*
X0069863Y0008304D01*
X0069096Y0007537D01*
X0069096Y0003700D02*
X0072165Y0003700D01*
X0123696Y0021200D02*
X0123696Y0023502D01*
X0124463Y0024269D01*
X0125231Y0024269D01*
X0125998Y0023502D01*
X0125998Y0021200D01*
X0128300Y0021200D02*
X0123696Y0021200D01*
X0125998Y0023502D02*
X0126765Y0024269D01*
X0127533Y0024269D01*
X0128300Y0023502D01*
X0128300Y0021200D01*
X0127533Y0025804D02*
X0124463Y0025804D01*
X0123696Y0026571D01*
X0123696Y0028106D01*
X0124463Y0028873D01*
X0127533Y0028873D01*
X0128300Y0028106D01*
X0128300Y0026571D01*
X0127533Y0025804D01*
X0128300Y0030408D02*
X0125231Y0030408D01*
X0123696Y0031942D01*
X0125231Y0033477D01*
X0128300Y0033477D01*
X0125998Y0033477D02*
X0125998Y0030408D01*
X0126765Y0035012D02*
X0126765Y0037314D01*
X0125998Y0038081D01*
X0124463Y0038081D01*
X0123696Y0037314D01*
X0123696Y0035012D01*
X0128300Y0035012D01*
X0126765Y0036546D02*
X0128300Y0038081D01*
X0128300Y0039616D02*
X0128300Y0041918D01*
X0127533Y0042685D01*
X0124463Y0042685D01*
X0123696Y0041918D01*
X0123696Y0039616D01*
X0128300Y0039616D01*
X0128300Y0046200D02*
X0123696Y0046200D01*
X0125231Y0047735D01*
X0123696Y0049269D01*
X0128300Y0049269D01*
X0127533Y0050804D02*
X0128300Y0051571D01*
X0128300Y0053106D01*
X0127533Y0053873D01*
X0127533Y0055408D02*
X0128300Y0056175D01*
X0128300Y0057710D01*
X0127533Y0058477D01*
X0123696Y0058477D01*
X0123696Y0055408D02*
X0127533Y0055408D01*
X0124463Y0053873D02*
X0123696Y0053106D01*
X0123696Y0051571D01*
X0124463Y0050804D01*
X0127533Y0050804D01*
X0019220Y0006769D02*
X0019220Y0004467D01*
X0017685Y0006002D02*
X0014616Y0006002D01*
X0009269Y0011967D02*
X0006200Y0015037D01*
X0007735Y0015037D02*
X0007735Y0011967D01*
X0006200Y0011967D02*
X0009269Y0015037D01*
X0009269Y0013502D02*
X0006200Y0013502D01*
D11*
X0006030Y0028850D02*
X0009166Y0031986D01*
X0007598Y0031986D02*
X0007598Y0028850D01*
X0009166Y0028850D02*
X0006030Y0031986D01*
X0006030Y0030418D02*
X0009166Y0030418D01*
X0081574Y0009983D02*
X0082058Y0010466D01*
X0082058Y0011434D01*
X0082541Y0010950D01*
X0083025Y0010950D01*
X0083509Y0011434D01*
X0083509Y0012401D01*
X0082058Y0012401D02*
X0082058Y0011434D01*
X0085488Y0010950D02*
X0085488Y0013852D01*
X0086455Y0013852D02*
X0084520Y0013852D01*
X0087467Y0013852D02*
X0087467Y0010950D01*
X0089402Y0010950D02*
X0089402Y0012401D01*
X0088918Y0012885D01*
X0087951Y0012885D01*
X0087467Y0012401D01*
X0093360Y0012885D02*
X0093844Y0013369D01*
X0093844Y0014336D01*
X0094833Y0012885D02*
X0095801Y0013852D01*
X0095801Y0010950D01*
X0096768Y0010950D02*
X0094833Y0010950D01*
X0095570Y0009052D02*
X0095570Y0008569D01*
X0096537Y0007601D01*
X0096537Y0006150D01*
X0096537Y0007601D02*
X0097505Y0008569D01*
X0097505Y0009052D01*
X0094558Y0008569D02*
X0094558Y0008085D01*
X0094074Y0007601D01*
X0092623Y0007601D01*
X0094074Y0007601D02*
X0094558Y0007117D01*
X0094558Y0006634D01*
X0094074Y0006150D01*
X0092623Y0006150D01*
X0092623Y0009052D01*
X0094074Y0009052D01*
X0094558Y0008569D01*
X0097780Y0011434D02*
X0098263Y0010950D01*
X0099231Y0010950D01*
X0099715Y0011434D01*
X0099715Y0012401D01*
X0099231Y0012885D01*
X0098747Y0012885D01*
X0097780Y0012401D01*
X0097780Y0013852D01*
X0099715Y0013852D01*
X0088665Y0008569D02*
X0088181Y0009052D01*
X0087214Y0009052D01*
X0086730Y0008569D01*
X0086730Y0006634D01*
X0087214Y0006150D01*
X0088181Y0006150D01*
X0088665Y0006634D01*
X0085719Y0006634D02*
X0085235Y0006150D01*
X0084267Y0006150D01*
X0083784Y0006634D01*
X0083784Y0008569D01*
X0084267Y0009052D01*
X0085235Y0009052D01*
X0085719Y0008569D01*
D12*
X0078500Y0013500D02*
X0076000Y0011000D01*
X0071000Y0011000D01*
X0068500Y0013500D01*
X0066000Y0011000D01*
X0061000Y0011000D01*
X0058500Y0013500D01*
X0056000Y0011000D01*
X0051000Y0011000D01*
X0048500Y0013500D01*
X0046000Y0011000D01*
X0041000Y0011000D01*
X0038500Y0013500D01*
X0036000Y0011000D01*
X0031000Y0011000D01*
X0028500Y0013500D01*
X0026000Y0011000D01*
X0021000Y0011000D01*
X0018500Y0013500D01*
X0016000Y0011000D01*
X0011000Y0011000D01*
X0008500Y0013500D01*
X0008500Y0018500D01*
X0011000Y0021000D01*
X0016000Y0021000D01*
X0018500Y0018500D01*
X0021000Y0021000D01*
X0026000Y0021000D01*
X0028500Y0018500D01*
X0031000Y0021000D01*
X0036000Y0021000D01*
X0038500Y0018500D01*
X0041000Y0021000D01*
X0046000Y0021000D01*
X0048500Y0018500D01*
X0051000Y0021000D01*
X0056000Y0021000D01*
X0058500Y0018500D01*
X0061000Y0021000D01*
X0066000Y0021000D01*
X0068500Y0018500D01*
X0071000Y0021000D01*
X0076000Y0021000D01*
X0078500Y0018500D01*
X0078500Y0013500D01*
X0091000Y0023500D02*
X0093500Y0021000D01*
X0098500Y0021000D01*
X0101000Y0023500D01*
X0101000Y0038500D01*
X0103500Y0041000D01*
X0108500Y0041000D01*
X0111000Y0038500D01*
X0111000Y0023500D01*
X0113500Y0021000D01*
X0118500Y0021000D01*
X0121000Y0023500D01*
X0121000Y0038500D01*
X0118500Y0041000D01*
X0113500Y0041000D01*
X0111000Y0038500D01*
X0108500Y0041000D02*
X0103500Y0041000D01*
X0101000Y0043500D01*
X0101000Y0058500D01*
X0103500Y0061000D01*
X0108500Y0061000D01*
X0111000Y0058500D01*
X0111000Y0043500D01*
X0113500Y0041000D01*
X0118500Y0041000D01*
X0121000Y0043500D01*
X0121000Y0058500D01*
X0118500Y0061000D01*
X0113500Y0061000D01*
X0111000Y0058500D01*
X0101000Y0058500D02*
X0098500Y0061000D01*
X0093500Y0061000D01*
X0091000Y0058500D01*
X0091000Y0043500D01*
X0093500Y0041000D01*
X0098500Y0041000D01*
X0101000Y0038500D01*
X0098500Y0039681D02*
X0093500Y0039681D01*
X0093500Y0041000D02*
X0091000Y0038500D01*
X0091000Y0023500D01*
X0093500Y0019681D02*
X0098500Y0019681D01*
X0101000Y0023500D02*
X0103500Y0021000D01*
X0108500Y0021000D01*
X0111000Y0023500D01*
X0108500Y0041000D02*
X0111000Y0043500D01*
X0101000Y0043500D02*
X0098500Y0041000D01*
X0093500Y0041000D01*
X0078500Y0043500D02*
X0078500Y0048500D01*
X0076000Y0051000D01*
X0071000Y0051000D01*
X0068500Y0048500D01*
X0066000Y0051000D01*
X0061000Y0051000D01*
X0058500Y0048500D01*
X0056000Y0051000D01*
X0051000Y0051000D01*
X0048500Y0048500D01*
X0046000Y0051000D01*
X0041000Y0051000D01*
X0038500Y0048500D01*
X0036000Y0051000D01*
X0031000Y0051000D01*
X0028500Y0048500D01*
X0026000Y0051000D01*
X0021000Y0051000D01*
X0018500Y0048500D01*
X0016000Y0051000D01*
X0011000Y0051000D01*
X0008500Y0048500D01*
X0008500Y0043500D01*
X0011000Y0041000D01*
X0016000Y0041000D01*
X0018500Y0043500D01*
X0021000Y0041000D01*
X0026000Y0041000D01*
X0028500Y0043500D01*
X0031000Y0041000D01*
X0036000Y0041000D01*
X0038500Y0043500D01*
X0041000Y0041000D01*
X0046000Y0041000D01*
X0048500Y0043500D01*
X0051000Y0041000D01*
X0056000Y0041000D01*
X0058500Y0043500D01*
X0061000Y0041000D01*
X0066000Y0041000D01*
X0068500Y0043500D01*
X0071000Y0041000D01*
X0076000Y0041000D01*
X0078500Y0043500D01*
D13*
X0077600Y0032000D02*
X0082300Y0032000D01*
X0082300Y0060000D01*
X0077600Y0060000D01*
X0069400Y0060000D02*
X0067600Y0060000D01*
X0059400Y0060000D02*
X0057600Y0060000D01*
X0049400Y0060000D02*
X0047600Y0060000D01*
X0039400Y0060000D02*
X0037600Y0060000D01*
X0029400Y0060000D02*
X0027600Y0060000D01*
X0019400Y0060000D02*
X0017600Y0060000D01*
X0009400Y0060000D02*
X0004700Y0060000D01*
X0004700Y0047200D01*
X0004700Y0044800D01*
X0004700Y0032000D01*
X0009200Y0032000D01*
X0017800Y0032000D02*
X0019400Y0032000D01*
X0027600Y0032000D02*
X0029400Y0032000D01*
X0037600Y0032000D02*
X0039400Y0032000D01*
X0047600Y0032000D02*
X0049400Y0032000D01*
X0057600Y0032000D02*
X0059400Y0032000D01*
X0067600Y0032000D02*
X0069400Y0032000D01*
X0004700Y0044800D02*
X0004769Y0044802D01*
X0004837Y0044808D01*
X0004905Y0044818D01*
X0004972Y0044831D01*
X0005038Y0044849D01*
X0005103Y0044870D01*
X0005167Y0044895D01*
X0005229Y0044923D01*
X0005290Y0044955D01*
X0005349Y0044990D01*
X0005405Y0045029D01*
X0005460Y0045071D01*
X0005511Y0045116D01*
X0005561Y0045164D01*
X0005607Y0045214D01*
X0005650Y0045267D01*
X0005691Y0045323D01*
X0005728Y0045380D01*
X0005761Y0045440D01*
X0005792Y0045502D01*
X0005818Y0045565D01*
X0005841Y0045629D01*
X0005861Y0045695D01*
X0005876Y0045762D01*
X0005888Y0045829D01*
X0005896Y0045897D01*
X0005900Y0045966D01*
X0005900Y0046034D01*
X0005896Y0046103D01*
X0005888Y0046171D01*
X0005876Y0046238D01*
X0005861Y0046305D01*
X0005841Y0046371D01*
X0005818Y0046435D01*
X0005792Y0046498D01*
X0005761Y0046560D01*
X0005728Y0046620D01*
X0005691Y0046677D01*
X0005650Y0046733D01*
X0005607Y0046786D01*
X0005561Y0046836D01*
X0005511Y0046884D01*
X0005460Y0046929D01*
X0005405Y0046971D01*
X0005349Y0047010D01*
X0005290Y0047045D01*
X0005229Y0047077D01*
X0005167Y0047105D01*
X0005103Y0047130D01*
X0005038Y0047151D01*
X0004972Y0047169D01*
X0004905Y0047182D01*
X0004837Y0047192D01*
X0004769Y0047198D01*
X0004700Y0047200D01*
D14*
X0117639Y0011720D02*
X0117639Y0010280D01*
X0119544Y0010087D01*
X0119749Y0009446D01*
X0120057Y0008848D01*
X0118846Y0007364D01*
X0119864Y0006346D01*
X0121348Y0007557D01*
X0121946Y0007249D01*
X0122794Y0009295D01*
X0122415Y0009507D01*
X0122097Y0009801D01*
X0121855Y0010162D01*
X0121705Y0010569D01*
X0121654Y0011000D01*
X0121707Y0011439D01*
X0121863Y0011852D01*
X0122112Y0012217D01*
X0122441Y0012511D01*
X0122831Y0012720D01*
X0123259Y0012829D01*
X0123701Y0012834D01*
X0124131Y0012734D01*
X0124525Y0012534D01*
X0124860Y0012246D01*
X0125118Y0011887D01*
X0125282Y0011477D01*
X0125345Y0011040D01*
X0125301Y0010600D01*
X0125155Y0010184D01*
X0124914Y0009814D01*
X0124591Y0009512D01*
X0124206Y0009295D01*
X0125054Y0007249D01*
X0125652Y0007557D01*
X0127136Y0006346D01*
X0128154Y0007364D01*
X0126943Y0008848D01*
X0127251Y0009446D01*
X0127456Y0010087D01*
X0129361Y0010280D01*
X0129361Y0011720D01*
X0127456Y0011913D01*
X0127251Y0012554D01*
X0126943Y0013152D01*
X0128154Y0014636D01*
X0127136Y0015654D01*
X0125652Y0014443D01*
X0125054Y0014751D01*
X0124413Y0014956D01*
X0124220Y0016861D01*
X0122780Y0016861D01*
X0122587Y0014956D01*
X0121946Y0014751D01*
X0121348Y0014443D01*
X0119864Y0015654D01*
X0118846Y0014636D01*
X0120057Y0013152D01*
X0119749Y0012554D01*
X0119544Y0011913D01*
X0117639Y0011720D01*
X0117639Y0011603D02*
X0121769Y0011603D01*
X0121656Y0011014D02*
X0117639Y0011014D01*
X0117639Y0010425D02*
X0121758Y0010425D01*
X0122073Y0009836D02*
X0119624Y0009836D01*
X0119851Y0009247D02*
X0122774Y0009247D01*
X0122530Y0008658D02*
X0119901Y0008658D01*
X0119421Y0008069D02*
X0122286Y0008069D01*
X0122042Y0007480D02*
X0121498Y0007480D01*
X0121254Y0007480D02*
X0118941Y0007480D01*
X0119320Y0006891D02*
X0120532Y0006891D01*
X0124470Y0008658D02*
X0127099Y0008658D01*
X0127149Y0009247D02*
X0124226Y0009247D01*
X0124928Y0009836D02*
X0127376Y0009836D01*
X0127579Y0008069D02*
X0124714Y0008069D01*
X0124958Y0007480D02*
X0125502Y0007480D01*
X0125746Y0007480D02*
X0128059Y0007480D01*
X0127680Y0006891D02*
X0126468Y0006891D01*
X0125240Y0010425D02*
X0129361Y0010425D01*
X0129361Y0011014D02*
X0125342Y0011014D01*
X0125232Y0011603D02*
X0129361Y0011603D01*
X0127367Y0012192D02*
X0124899Y0012192D01*
X0123927Y0012781D02*
X0127134Y0012781D01*
X0127122Y0013370D02*
X0119878Y0013370D01*
X0119866Y0012781D02*
X0123072Y0012781D01*
X0122096Y0012192D02*
X0119633Y0012192D01*
X0119398Y0013959D02*
X0127602Y0013959D01*
X0128082Y0014548D02*
X0125781Y0014548D01*
X0125447Y0014548D02*
X0121553Y0014548D01*
X0121220Y0014548D02*
X0118918Y0014548D01*
X0119348Y0015137D02*
X0120497Y0015137D01*
X0122605Y0015137D02*
X0124395Y0015137D01*
X0124335Y0015727D02*
X0122665Y0015727D01*
X0122725Y0016316D02*
X0124275Y0016316D01*
X0126503Y0015137D02*
X0127652Y0015137D01*
D15*
X0117999Y0018618D02*
X0117796Y0019861D01*
X0117455Y0019465D01*
X0117592Y0018706D01*
X0117334Y0018365D01*
X0117174Y0018398D01*
X0117037Y0018382D01*
X0116542Y0018811D01*
X0116624Y0019344D01*
X0116300Y0019773D01*
X0116146Y0018618D01*
X0116712Y0018107D01*
X0116658Y0017881D01*
X0116795Y0017557D01*
X0116658Y0017298D01*
X0116124Y0016198D01*
X0116074Y0016077D01*
X0116025Y0016077D01*
X0115662Y0015923D01*
X0115508Y0015560D01*
X0115508Y0015527D01*
X0115475Y0015511D01*
X0114876Y0015203D01*
X0114650Y0015478D01*
X0114480Y0015340D01*
X0114326Y0015665D01*
X0114100Y0015786D01*
X0114051Y0015769D01*
X0113897Y0016165D01*
X0113534Y0016336D01*
X0111851Y0016336D01*
X0111851Y0016352D01*
X0111438Y0016627D01*
X0111542Y0016765D01*
X0111388Y0016919D01*
X0112247Y0016919D01*
X0112247Y0017639D01*
X0111779Y0017298D01*
X0111042Y0017210D01*
X0110266Y0017282D01*
X0109991Y0017403D01*
X0109991Y0016919D01*
X0110712Y0016919D01*
X0110503Y0016748D01*
X0110608Y0016627D01*
X0110212Y0016336D01*
X0108441Y0016336D01*
X0108077Y0016165D01*
X0107923Y0015753D01*
X0107923Y0015665D01*
X0107726Y0015786D01*
X0107516Y0015665D01*
X0107362Y0015340D01*
X0107192Y0015478D01*
X0106934Y0015153D01*
X0106262Y0015153D01*
X0105801Y0015445D01*
X0105437Y0015291D01*
X0105284Y0014911D01*
X0105437Y0014548D01*
X0105801Y0014394D01*
X0105938Y0014136D01*
X0106488Y0014136D01*
X0106472Y0014185D01*
X0106230Y0014631D01*
X0106246Y0014664D01*
X0106934Y0014664D01*
X0107176Y0014356D01*
X0107346Y0014477D01*
X0107500Y0014152D01*
X0107533Y0014136D01*
X0107874Y0014136D01*
X0107923Y0014169D01*
X0107923Y0014136D01*
X0114298Y0014136D01*
X0114342Y0014152D01*
X0114496Y0014477D01*
X0114666Y0014361D01*
X0114909Y0014719D01*
X0115095Y0014768D01*
X0115701Y0015082D01*
X0115750Y0015115D01*
X0116025Y0015027D01*
X0116388Y0015181D01*
X0116542Y0015560D01*
X0116437Y0015852D01*
X0116575Y0016094D01*
X0117092Y0017194D01*
X0117158Y0017364D01*
X0117174Y0017364D01*
X0117537Y0017518D01*
X0117691Y0017881D01*
X0117659Y0018107D01*
X0117999Y0018618D01*
X0117997Y0018615D02*
X0117523Y0018615D01*
X0117495Y0018577D02*
X0117972Y0018577D01*
X0117947Y0018539D02*
X0117466Y0018539D01*
X0117437Y0018501D02*
X0117921Y0018501D01*
X0117896Y0018463D02*
X0117408Y0018463D01*
X0117380Y0018425D02*
X0117871Y0018425D01*
X0117846Y0018388D02*
X0117351Y0018388D01*
X0117226Y0018388D02*
X0117085Y0018388D01*
X0117030Y0018388D02*
X0116401Y0018388D01*
X0116359Y0018425D02*
X0116987Y0018425D01*
X0116943Y0018463D02*
X0116318Y0018463D01*
X0116276Y0018501D02*
X0116899Y0018501D01*
X0116855Y0018539D02*
X0116234Y0018539D01*
X0116192Y0018577D02*
X0116812Y0018577D01*
X0116768Y0018615D02*
X0116150Y0018615D01*
X0116151Y0018653D02*
X0116724Y0018653D01*
X0116681Y0018691D02*
X0116156Y0018691D01*
X0116161Y0018728D02*
X0116637Y0018728D01*
X0116593Y0018766D02*
X0116166Y0018766D01*
X0116171Y0018804D02*
X0116549Y0018804D01*
X0116547Y0018842D02*
X0116176Y0018842D01*
X0116181Y0018880D02*
X0116553Y0018880D01*
X0116559Y0018918D02*
X0116186Y0018918D01*
X0116191Y0018956D02*
X0116564Y0018956D01*
X0116570Y0018994D02*
X0116196Y0018994D01*
X0116201Y0019032D02*
X0116576Y0019032D01*
X0116582Y0019069D02*
X0116206Y0019069D01*
X0116211Y0019107D02*
X0116588Y0019107D01*
X0116594Y0019145D02*
X0116216Y0019145D01*
X0116221Y0019183D02*
X0116600Y0019183D01*
X0116605Y0019221D02*
X0116226Y0019221D01*
X0116231Y0019259D02*
X0116611Y0019259D01*
X0116617Y0019297D02*
X0116236Y0019297D01*
X0116242Y0019335D02*
X0116623Y0019335D01*
X0116603Y0019372D02*
X0116247Y0019372D01*
X0116252Y0019410D02*
X0116574Y0019410D01*
X0116546Y0019448D02*
X0116257Y0019448D01*
X0116262Y0019486D02*
X0116517Y0019486D01*
X0116488Y0019524D02*
X0116267Y0019524D01*
X0116272Y0019562D02*
X0116460Y0019562D01*
X0116431Y0019600D02*
X0116277Y0019600D01*
X0116282Y0019638D02*
X0116403Y0019638D01*
X0116374Y0019676D02*
X0116287Y0019676D01*
X0116292Y0019713D02*
X0116345Y0019713D01*
X0116317Y0019751D02*
X0116297Y0019751D01*
X0117458Y0019448D02*
X0117864Y0019448D01*
X0117870Y0019410D02*
X0117465Y0019410D01*
X0117472Y0019372D02*
X0117876Y0019372D01*
X0117882Y0019335D02*
X0117479Y0019335D01*
X0117486Y0019297D02*
X0117888Y0019297D01*
X0117895Y0019259D02*
X0117492Y0019259D01*
X0117499Y0019221D02*
X0117901Y0019221D01*
X0117907Y0019183D02*
X0117506Y0019183D01*
X0117513Y0019145D02*
X0117913Y0019145D01*
X0117919Y0019107D02*
X0117520Y0019107D01*
X0117527Y0019069D02*
X0117926Y0019069D01*
X0117932Y0019032D02*
X0117534Y0019032D01*
X0117540Y0018994D02*
X0117938Y0018994D01*
X0117944Y0018956D02*
X0117547Y0018956D01*
X0117554Y0018918D02*
X0117950Y0018918D01*
X0117957Y0018880D02*
X0117561Y0018880D01*
X0117568Y0018842D02*
X0117963Y0018842D01*
X0117969Y0018804D02*
X0117575Y0018804D01*
X0117582Y0018766D02*
X0117975Y0018766D01*
X0117981Y0018728D02*
X0117588Y0018728D01*
X0117581Y0018691D02*
X0117988Y0018691D01*
X0117994Y0018653D02*
X0117552Y0018653D01*
X0117820Y0018350D02*
X0116443Y0018350D01*
X0116485Y0018312D02*
X0117795Y0018312D01*
X0117770Y0018274D02*
X0116527Y0018274D01*
X0116569Y0018236D02*
X0117745Y0018236D01*
X0117719Y0018198D02*
X0116611Y0018198D01*
X0116653Y0018160D02*
X0117694Y0018160D01*
X0117669Y0018122D02*
X0116695Y0018122D01*
X0116707Y0018085D02*
X0117662Y0018085D01*
X0117667Y0018047D02*
X0116698Y0018047D01*
X0116689Y0018009D02*
X0117673Y0018009D01*
X0117678Y0017971D02*
X0116679Y0017971D01*
X0116670Y0017933D02*
X0117684Y0017933D01*
X0117689Y0017895D02*
X0116661Y0017895D01*
X0116668Y0017857D02*
X0117681Y0017857D01*
X0117665Y0017819D02*
X0116684Y0017819D01*
X0116700Y0017781D02*
X0117649Y0017781D01*
X0117633Y0017744D02*
X0116716Y0017744D01*
X0116732Y0017706D02*
X0117617Y0017706D01*
X0117601Y0017668D02*
X0116748Y0017668D01*
X0116764Y0017630D02*
X0117585Y0017630D01*
X0117569Y0017592D02*
X0116780Y0017592D01*
X0116794Y0017554D02*
X0117553Y0017554D01*
X0117533Y0017516D02*
X0116774Y0017516D01*
X0116753Y0017478D02*
X0117444Y0017478D01*
X0117354Y0017441D02*
X0116733Y0017441D01*
X0116713Y0017403D02*
X0117265Y0017403D01*
X0117176Y0017365D02*
X0116693Y0017365D01*
X0116673Y0017327D02*
X0117144Y0017327D01*
X0117129Y0017289D02*
X0116653Y0017289D01*
X0116635Y0017251D02*
X0117114Y0017251D01*
X0117100Y0017213D02*
X0116616Y0017213D01*
X0116598Y0017175D02*
X0117083Y0017175D01*
X0117066Y0017137D02*
X0116580Y0017137D01*
X0116561Y0017100D02*
X0117048Y0017100D01*
X0117030Y0017062D02*
X0116543Y0017062D01*
X0116524Y0017024D02*
X0117012Y0017024D01*
X0116994Y0016986D02*
X0116506Y0016986D01*
X0116488Y0016948D02*
X0116977Y0016948D01*
X0116959Y0016910D02*
X0116469Y0016910D01*
X0116451Y0016872D02*
X0116941Y0016872D01*
X0116923Y0016834D02*
X0116433Y0016834D01*
X0116414Y0016797D02*
X0116905Y0016797D01*
X0116888Y0016759D02*
X0116396Y0016759D01*
X0116377Y0016721D02*
X0116870Y0016721D01*
X0116852Y0016683D02*
X0116359Y0016683D01*
X0116341Y0016645D02*
X0116834Y0016645D01*
X0116816Y0016607D02*
X0116322Y0016607D01*
X0116304Y0016569D02*
X0116799Y0016569D01*
X0116781Y0016531D02*
X0116286Y0016531D01*
X0116267Y0016493D02*
X0116763Y0016493D01*
X0116745Y0016456D02*
X0116249Y0016456D01*
X0116230Y0016418D02*
X0116727Y0016418D01*
X0116709Y0016380D02*
X0116212Y0016380D01*
X0116194Y0016342D02*
X0116692Y0016342D01*
X0116674Y0016304D02*
X0116175Y0016304D01*
X0116157Y0016266D02*
X0116656Y0016266D01*
X0116638Y0016228D02*
X0116139Y0016228D01*
X0116121Y0016190D02*
X0116620Y0016190D01*
X0116603Y0016153D02*
X0116105Y0016153D01*
X0116090Y0016115D02*
X0116585Y0016115D01*
X0116565Y0016077D02*
X0116024Y0016077D01*
X0115935Y0016039D02*
X0116544Y0016039D01*
X0116522Y0016001D02*
X0115845Y0016001D01*
X0115756Y0015963D02*
X0116501Y0015963D01*
X0116479Y0015925D02*
X0115667Y0015925D01*
X0115647Y0015887D02*
X0116458Y0015887D01*
X0116438Y0015850D02*
X0115631Y0015850D01*
X0115615Y0015812D02*
X0116452Y0015812D01*
X0116465Y0015774D02*
X0115599Y0015774D01*
X0115583Y0015736D02*
X0116479Y0015736D01*
X0116493Y0015698D02*
X0115566Y0015698D01*
X0115550Y0015660D02*
X0116506Y0015660D01*
X0116520Y0015622D02*
X0115534Y0015622D01*
X0115518Y0015584D02*
X0116533Y0015584D01*
X0116536Y0015546D02*
X0115508Y0015546D01*
X0115471Y0015509D02*
X0116521Y0015509D01*
X0116506Y0015471D02*
X0115397Y0015471D01*
X0115323Y0015433D02*
X0116490Y0015433D01*
X0116475Y0015395D02*
X0115250Y0015395D01*
X0115176Y0015357D02*
X0116460Y0015357D01*
X0116444Y0015319D02*
X0115102Y0015319D01*
X0115028Y0015281D02*
X0116429Y0015281D01*
X0116413Y0015243D02*
X0114955Y0015243D01*
X0114881Y0015206D02*
X0116398Y0015206D01*
X0116357Y0015168D02*
X0106945Y0015168D01*
X0106975Y0015206D02*
X0114873Y0015206D01*
X0114842Y0015243D02*
X0107005Y0015243D01*
X0107036Y0015281D02*
X0114811Y0015281D01*
X0114780Y0015319D02*
X0107066Y0015319D01*
X0107096Y0015357D02*
X0107342Y0015357D01*
X0107371Y0015357D02*
X0114472Y0015357D01*
X0114500Y0015357D02*
X0114749Y0015357D01*
X0114718Y0015395D02*
X0114547Y0015395D01*
X0114594Y0015433D02*
X0114687Y0015433D01*
X0114656Y0015471D02*
X0114641Y0015471D01*
X0114454Y0015395D02*
X0107388Y0015395D01*
X0107406Y0015433D02*
X0114436Y0015433D01*
X0114418Y0015471D02*
X0107424Y0015471D01*
X0107442Y0015509D02*
X0114400Y0015509D01*
X0114382Y0015546D02*
X0107460Y0015546D01*
X0107478Y0015584D02*
X0114364Y0015584D01*
X0114346Y0015622D02*
X0107496Y0015622D01*
X0107514Y0015660D02*
X0114328Y0015660D01*
X0114263Y0015698D02*
X0107923Y0015698D01*
X0107923Y0015736D02*
X0114193Y0015736D01*
X0114122Y0015774D02*
X0114064Y0015774D01*
X0114049Y0015774D02*
X0107931Y0015774D01*
X0107946Y0015812D02*
X0114034Y0015812D01*
X0114019Y0015850D02*
X0107960Y0015850D01*
X0107974Y0015887D02*
X0114005Y0015887D01*
X0113990Y0015925D02*
X0107988Y0015925D01*
X0108002Y0015963D02*
X0113975Y0015963D01*
X0113960Y0016001D02*
X0108016Y0016001D01*
X0108030Y0016039D02*
X0113946Y0016039D01*
X0113931Y0016077D02*
X0108045Y0016077D01*
X0108059Y0016115D02*
X0113916Y0016115D01*
X0113901Y0016153D02*
X0108073Y0016153D01*
X0108131Y0016190D02*
X0113843Y0016190D01*
X0113762Y0016228D02*
X0108212Y0016228D01*
X0108293Y0016266D02*
X0113681Y0016266D01*
X0113601Y0016304D02*
X0108373Y0016304D01*
X0107869Y0015698D02*
X0107574Y0015698D01*
X0107639Y0015736D02*
X0107807Y0015736D01*
X0107745Y0015774D02*
X0107705Y0015774D01*
X0107295Y0015395D02*
X0107126Y0015395D01*
X0107156Y0015433D02*
X0107248Y0015433D01*
X0107201Y0015471D02*
X0107186Y0015471D01*
X0106240Y0015168D02*
X0105388Y0015168D01*
X0105403Y0015206D02*
X0106180Y0015206D01*
X0106120Y0015243D02*
X0105418Y0015243D01*
X0105434Y0015281D02*
X0106059Y0015281D01*
X0105999Y0015319D02*
X0105505Y0015319D01*
X0105594Y0015357D02*
X0105939Y0015357D01*
X0105879Y0015395D02*
X0105683Y0015395D01*
X0105772Y0015433D02*
X0105819Y0015433D01*
X0105372Y0015130D02*
X0116268Y0015130D01*
X0116179Y0015092D02*
X0115821Y0015092D01*
X0115716Y0015092D02*
X0105357Y0015092D01*
X0105341Y0015054D02*
X0115647Y0015054D01*
X0115574Y0015016D02*
X0105326Y0015016D01*
X0105311Y0014978D02*
X0115501Y0014978D01*
X0115428Y0014940D02*
X0105295Y0014940D01*
X0105287Y0014902D02*
X0115355Y0014902D01*
X0115282Y0014865D02*
X0105303Y0014865D01*
X0105319Y0014827D02*
X0115208Y0014827D01*
X0115135Y0014789D02*
X0105335Y0014789D01*
X0105351Y0014751D02*
X0115030Y0014751D01*
X0114905Y0014713D02*
X0105368Y0014713D01*
X0105384Y0014675D02*
X0114879Y0014675D01*
X0114853Y0014637D02*
X0106954Y0014637D01*
X0106984Y0014599D02*
X0114828Y0014599D01*
X0114802Y0014562D02*
X0107014Y0014562D01*
X0107044Y0014524D02*
X0114776Y0014524D01*
X0114751Y0014486D02*
X0107073Y0014486D01*
X0107103Y0014448D02*
X0107305Y0014448D01*
X0107360Y0014448D02*
X0114482Y0014448D01*
X0114464Y0014410D02*
X0107378Y0014410D01*
X0107396Y0014372D02*
X0114446Y0014372D01*
X0114428Y0014334D02*
X0107414Y0014334D01*
X0107432Y0014296D02*
X0114410Y0014296D01*
X0114392Y0014258D02*
X0107450Y0014258D01*
X0107468Y0014221D02*
X0114374Y0014221D01*
X0114356Y0014183D02*
X0107486Y0014183D01*
X0107515Y0014145D02*
X0107888Y0014145D01*
X0107874Y0014136D02*
X0107533Y0014136D01*
X0107703Y0014031D01*
X0107874Y0014136D01*
X0107923Y0014145D02*
X0114322Y0014145D01*
X0114309Y0014141D02*
X0114303Y0014136D01*
X0107929Y0014136D01*
X0107929Y0013674D01*
X0107330Y0014037D01*
X0106867Y0013916D01*
X0106488Y0014125D01*
X0106488Y0014141D01*
X0105938Y0014141D01*
X0106042Y0013971D01*
X0106059Y0013938D01*
X0105933Y0013602D01*
X0106053Y0013294D01*
X0106328Y0013107D01*
X0106653Y0012282D01*
X0107791Y0012040D01*
X0107516Y0012486D01*
X0106983Y0012590D01*
X0106758Y0013190D01*
X0106966Y0013514D01*
X0107274Y0013602D01*
X0107929Y0013223D01*
X0107929Y0012172D01*
X0108083Y0011760D01*
X0108446Y0011589D01*
X0108584Y0011589D01*
X0108584Y0010660D01*
X0113393Y0010660D01*
X0113396Y0010665D02*
X0113396Y0011595D01*
X0113534Y0011595D01*
X0113897Y0011765D01*
X0114051Y0012178D01*
X0114051Y0014053D01*
X0114138Y0014037D01*
X0114309Y0014141D01*
X0114253Y0014107D02*
X0107929Y0014107D01*
X0107929Y0014069D02*
X0114191Y0014069D01*
X0114051Y0014031D02*
X0107929Y0014031D01*
X0107929Y0013993D02*
X0114051Y0013993D01*
X0114051Y0013955D02*
X0107929Y0013955D01*
X0107929Y0013918D02*
X0114051Y0013918D01*
X0114051Y0013880D02*
X0107929Y0013880D01*
X0107929Y0013842D02*
X0114051Y0013842D01*
X0114051Y0013804D02*
X0107929Y0013804D01*
X0107929Y0013766D02*
X0114051Y0013766D01*
X0114051Y0013728D02*
X0107929Y0013728D01*
X0107929Y0013690D02*
X0114051Y0013690D01*
X0114051Y0013652D02*
X0105951Y0013652D01*
X0105937Y0013615D02*
X0114051Y0013615D01*
X0114051Y0013577D02*
X0107319Y0013577D01*
X0107384Y0013539D02*
X0114051Y0013539D01*
X0114051Y0013501D02*
X0107449Y0013501D01*
X0107515Y0013463D02*
X0114051Y0013463D01*
X0114051Y0013425D02*
X0107580Y0013425D01*
X0107645Y0013387D02*
X0114051Y0013387D01*
X0114051Y0013349D02*
X0107711Y0013349D01*
X0107776Y0013311D02*
X0114051Y0013311D01*
X0114051Y0013274D02*
X0107841Y0013274D01*
X0107907Y0013236D02*
X0114051Y0013236D01*
X0114051Y0013198D02*
X0107929Y0013198D01*
X0107929Y0013160D02*
X0114051Y0013160D01*
X0114051Y0013122D02*
X0107929Y0013122D01*
X0107929Y0013084D02*
X0114051Y0013084D01*
X0114051Y0013046D02*
X0107929Y0013046D01*
X0107929Y0013008D02*
X0114051Y0013008D01*
X0114051Y0012971D02*
X0107929Y0012971D01*
X0107929Y0012933D02*
X0114051Y0012933D01*
X0114051Y0012895D02*
X0107929Y0012895D01*
X0107929Y0012857D02*
X0114051Y0012857D01*
X0114051Y0012819D02*
X0107929Y0012819D01*
X0107929Y0012781D02*
X0114051Y0012781D01*
X0114051Y0012743D02*
X0107929Y0012743D01*
X0107929Y0012705D02*
X0114051Y0012705D01*
X0114051Y0012667D02*
X0107929Y0012667D01*
X0107929Y0012630D02*
X0114051Y0012630D01*
X0114051Y0012592D02*
X0107929Y0012592D01*
X0107929Y0012554D02*
X0114051Y0012554D01*
X0114051Y0012516D02*
X0107929Y0012516D01*
X0107929Y0012478D02*
X0114051Y0012478D01*
X0114051Y0012440D02*
X0107929Y0012440D01*
X0107929Y0012402D02*
X0114051Y0012402D01*
X0114051Y0012364D02*
X0107929Y0012364D01*
X0107929Y0012327D02*
X0114051Y0012327D01*
X0114051Y0012289D02*
X0107929Y0012289D01*
X0107929Y0012251D02*
X0114051Y0012251D01*
X0114051Y0012213D02*
X0107929Y0012213D01*
X0107929Y0012175D02*
X0114049Y0012175D01*
X0114035Y0012137D02*
X0107942Y0012137D01*
X0107956Y0012099D02*
X0114021Y0012099D01*
X0114007Y0012061D02*
X0107970Y0012061D01*
X0107985Y0012023D02*
X0113993Y0012023D01*
X0113979Y0011986D02*
X0107999Y0011986D01*
X0108013Y0011948D02*
X0113965Y0011948D01*
X0113951Y0011910D02*
X0108027Y0011910D01*
X0108041Y0011872D02*
X0113936Y0011872D01*
X0113922Y0011834D02*
X0108055Y0011834D01*
X0108069Y0011796D02*
X0113908Y0011796D01*
X0113882Y0011758D02*
X0108086Y0011758D01*
X0108167Y0011720D02*
X0113801Y0011720D01*
X0113720Y0011683D02*
X0108247Y0011683D01*
X0108328Y0011645D02*
X0113640Y0011645D01*
X0113559Y0011607D02*
X0108409Y0011607D01*
X0108584Y0011569D02*
X0113396Y0011569D01*
X0113396Y0011531D02*
X0108584Y0011531D01*
X0108584Y0011493D02*
X0113396Y0011493D01*
X0113396Y0011455D02*
X0108584Y0011455D01*
X0108584Y0011417D02*
X0113396Y0011417D01*
X0113396Y0011380D02*
X0108584Y0011380D01*
X0108584Y0011342D02*
X0113396Y0011342D01*
X0113396Y0011304D02*
X0108584Y0011304D01*
X0108584Y0011266D02*
X0113396Y0011266D01*
X0113396Y0011228D02*
X0108584Y0011228D01*
X0108584Y0011190D02*
X0113396Y0011190D01*
X0113396Y0011152D02*
X0108584Y0011152D01*
X0108584Y0011114D02*
X0113396Y0011114D01*
X0113396Y0011076D02*
X0108584Y0011076D01*
X0108584Y0011039D02*
X0113396Y0011039D01*
X0113396Y0011001D02*
X0108584Y0011001D01*
X0108584Y0010963D02*
X0113396Y0010963D01*
X0113396Y0010925D02*
X0108584Y0010925D01*
X0108584Y0010887D02*
X0113396Y0010887D01*
X0113396Y0010849D02*
X0108584Y0010849D01*
X0108584Y0010811D02*
X0113396Y0010811D01*
X0113396Y0010773D02*
X0108584Y0010773D01*
X0108584Y0010736D02*
X0113396Y0010736D01*
X0113396Y0010698D02*
X0108584Y0010698D01*
X0108584Y0010660D02*
X0108705Y0010473D01*
X0108980Y0010385D01*
X0108958Y0010302D01*
X0109045Y0010148D01*
X0109078Y0010099D01*
X0109387Y0009945D01*
X0109282Y0009774D01*
X0109573Y0009549D01*
X0109573Y0008966D01*
X0109365Y0008779D01*
X0109277Y0008504D01*
X0109293Y0008454D01*
X0108897Y0008245D01*
X0108672Y0007987D01*
X0108567Y0007646D01*
X0110701Y0007646D01*
X0110668Y0007921D01*
X0110288Y0008366D01*
X0110322Y0008504D01*
X0110047Y0008949D01*
X0110047Y0009532D01*
X0110387Y0009791D01*
X0110266Y0009961D01*
X0110574Y0010115D01*
X0110591Y0010148D01*
X0110608Y0010148D01*
X0109045Y0010148D01*
X0110608Y0010148D01*
X0110712Y0010335D01*
X0110695Y0010385D01*
X0111295Y0010385D01*
X0111278Y0010302D01*
X0111366Y0010148D01*
X0111399Y0010099D01*
X0111708Y0009945D01*
X0111587Y0009774D01*
X0111916Y0009543D01*
X0111916Y0008960D01*
X0111625Y0008498D01*
X0111641Y0008377D01*
X0111245Y0007915D01*
X0111212Y0007624D01*
X0113308Y0007624D01*
X0113203Y0007948D01*
X0112995Y0008207D01*
X0112653Y0008416D01*
X0112670Y0008504D01*
X0112395Y0008949D01*
X0112395Y0009532D01*
X0112720Y0009791D01*
X0112598Y0009961D01*
X0112906Y0010115D01*
X0112923Y0010148D01*
X0112928Y0010148D01*
X0111366Y0010148D01*
X0112928Y0010148D01*
X0113033Y0010335D01*
X0113016Y0010390D01*
X0113291Y0010478D01*
X0113396Y0010665D01*
X0113372Y0010622D02*
X0108608Y0010622D01*
X0108632Y0010584D02*
X0113351Y0010584D01*
X0113329Y0010546D02*
X0108657Y0010546D01*
X0108682Y0010508D02*
X0113308Y0010508D01*
X0113267Y0010470D02*
X0108712Y0010470D01*
X0108830Y0010432D02*
X0113149Y0010432D01*
X0113030Y0010395D02*
X0108949Y0010395D01*
X0108972Y0010357D02*
X0110705Y0010357D01*
X0110703Y0010319D02*
X0108962Y0010319D01*
X0108970Y0010281D02*
X0110682Y0010281D01*
X0110661Y0010243D02*
X0108991Y0010243D01*
X0109013Y0010205D02*
X0110639Y0010205D01*
X0110618Y0010167D02*
X0109035Y0010167D01*
X0109058Y0010129D02*
X0110582Y0010129D01*
X0110527Y0010092D02*
X0109093Y0010092D01*
X0109169Y0010054D02*
X0110451Y0010054D01*
X0110376Y0010016D02*
X0109244Y0010016D01*
X0109320Y0009978D02*
X0110300Y0009978D01*
X0110282Y0009940D02*
X0109384Y0009940D01*
X0109360Y0009902D02*
X0110308Y0009902D01*
X0110335Y0009864D02*
X0109337Y0009864D01*
X0109314Y0009826D02*
X0110362Y0009826D01*
X0110385Y0009788D02*
X0109291Y0009788D01*
X0109312Y0009751D02*
X0110335Y0009751D01*
X0110285Y0009713D02*
X0109361Y0009713D01*
X0109410Y0009675D02*
X0110235Y0009675D01*
X0110185Y0009637D02*
X0109459Y0009637D01*
X0109508Y0009599D02*
X0110135Y0009599D01*
X0110085Y0009561D02*
X0109557Y0009561D01*
X0109573Y0009523D02*
X0110047Y0009523D01*
X0110047Y0009485D02*
X0109573Y0009485D01*
X0109573Y0009448D02*
X0110047Y0009448D01*
X0110047Y0009410D02*
X0109573Y0009410D01*
X0109573Y0009372D02*
X0110047Y0009372D01*
X0110047Y0009334D02*
X0109573Y0009334D01*
X0109573Y0009296D02*
X0110047Y0009296D01*
X0110047Y0009258D02*
X0109573Y0009258D01*
X0109573Y0009220D02*
X0110047Y0009220D01*
X0110047Y0009182D02*
X0109573Y0009182D01*
X0109573Y0009145D02*
X0110047Y0009145D01*
X0110047Y0009107D02*
X0109573Y0009107D01*
X0109573Y0009069D02*
X0110047Y0009069D01*
X0110047Y0009031D02*
X0109573Y0009031D01*
X0109573Y0008993D02*
X0110047Y0008993D01*
X0110047Y0008955D02*
X0109562Y0008955D01*
X0109519Y0008917D02*
X0110066Y0008917D01*
X0110090Y0008879D02*
X0109477Y0008879D01*
X0109435Y0008841D02*
X0110113Y0008841D01*
X0110136Y0008804D02*
X0109392Y0008804D01*
X0109360Y0008766D02*
X0110160Y0008766D01*
X0110183Y0008728D02*
X0109348Y0008728D01*
X0109336Y0008690D02*
X0110207Y0008690D01*
X0110230Y0008652D02*
X0109324Y0008652D01*
X0109312Y0008614D02*
X0110253Y0008614D01*
X0110277Y0008576D02*
X0109300Y0008576D01*
X0109288Y0008538D02*
X0110300Y0008538D01*
X0110321Y0008501D02*
X0109278Y0008501D01*
X0109290Y0008463D02*
X0110312Y0008463D01*
X0110303Y0008425D02*
X0109237Y0008425D01*
X0109165Y0008387D02*
X0110293Y0008387D01*
X0110303Y0008349D02*
X0109094Y0008349D01*
X0109022Y0008311D02*
X0110335Y0008311D01*
X0110368Y0008273D02*
X0108950Y0008273D01*
X0108888Y0008235D02*
X0110400Y0008235D01*
X0110432Y0008197D02*
X0108855Y0008197D01*
X0108822Y0008160D02*
X0110465Y0008160D01*
X0110497Y0008122D02*
X0108789Y0008122D01*
X0108756Y0008084D02*
X0110529Y0008084D01*
X0110561Y0008046D02*
X0108723Y0008046D01*
X0108690Y0008008D02*
X0110594Y0008008D01*
X0110626Y0007970D02*
X0108666Y0007970D01*
X0108655Y0007932D02*
X0110658Y0007932D01*
X0110671Y0007894D02*
X0108643Y0007894D01*
X0108632Y0007857D02*
X0110676Y0007857D01*
X0110680Y0007819D02*
X0108620Y0007819D01*
X0108608Y0007781D02*
X0110685Y0007781D01*
X0110689Y0007743D02*
X0108597Y0007743D01*
X0108585Y0007705D02*
X0110694Y0007705D01*
X0110698Y0007667D02*
X0108574Y0007667D01*
X0111213Y0007629D02*
X0113306Y0007629D01*
X0113294Y0007667D02*
X0111217Y0007667D01*
X0111222Y0007705D02*
X0113282Y0007705D01*
X0113270Y0007743D02*
X0111226Y0007743D01*
X0111230Y0007781D02*
X0113257Y0007781D01*
X0113245Y0007819D02*
X0111235Y0007819D01*
X0111239Y0007857D02*
X0113233Y0007857D01*
X0113221Y0007894D02*
X0111243Y0007894D01*
X0111260Y0007932D02*
X0113209Y0007932D01*
X0113186Y0007970D02*
X0111293Y0007970D01*
X0111325Y0008008D02*
X0113155Y0008008D01*
X0113124Y0008046D02*
X0111358Y0008046D01*
X0111390Y0008084D02*
X0113094Y0008084D01*
X0113063Y0008122D02*
X0111423Y0008122D01*
X0111455Y0008160D02*
X0113033Y0008160D01*
X0113002Y0008197D02*
X0111487Y0008197D01*
X0111520Y0008235D02*
X0112948Y0008235D01*
X0112886Y0008273D02*
X0111552Y0008273D01*
X0111585Y0008311D02*
X0112824Y0008311D01*
X0112762Y0008349D02*
X0111617Y0008349D01*
X0111640Y0008387D02*
X0112701Y0008387D01*
X0112655Y0008425D02*
X0111635Y0008425D01*
X0111630Y0008463D02*
X0112662Y0008463D01*
X0112669Y0008501D02*
X0111626Y0008501D01*
X0111650Y0008538D02*
X0112649Y0008538D01*
X0112625Y0008576D02*
X0111674Y0008576D01*
X0111698Y0008614D02*
X0112602Y0008614D01*
X0112578Y0008652D02*
X0111722Y0008652D01*
X0111746Y0008690D02*
X0112555Y0008690D01*
X0112532Y0008728D02*
X0111770Y0008728D01*
X0111794Y0008766D02*
X0112508Y0008766D01*
X0112485Y0008804D02*
X0111818Y0008804D01*
X0111842Y0008841D02*
X0112462Y0008841D01*
X0112438Y0008879D02*
X0111865Y0008879D01*
X0111889Y0008917D02*
X0112415Y0008917D01*
X0112395Y0008955D02*
X0111913Y0008955D01*
X0111916Y0008993D02*
X0112395Y0008993D01*
X0112395Y0009031D02*
X0111916Y0009031D01*
X0111916Y0009069D02*
X0112395Y0009069D01*
X0112395Y0009107D02*
X0111916Y0009107D01*
X0111916Y0009145D02*
X0112395Y0009145D01*
X0112395Y0009182D02*
X0111916Y0009182D01*
X0111916Y0009220D02*
X0112395Y0009220D01*
X0112395Y0009258D02*
X0111916Y0009258D01*
X0111916Y0009296D02*
X0112395Y0009296D01*
X0112395Y0009334D02*
X0111916Y0009334D01*
X0111916Y0009372D02*
X0112395Y0009372D01*
X0112395Y0009410D02*
X0111916Y0009410D01*
X0111916Y0009448D02*
X0112395Y0009448D01*
X0112395Y0009485D02*
X0111916Y0009485D01*
X0111916Y0009523D02*
X0112395Y0009523D01*
X0112431Y0009561D02*
X0111891Y0009561D01*
X0111837Y0009599D02*
X0112479Y0009599D01*
X0112527Y0009637D02*
X0111783Y0009637D01*
X0111728Y0009675D02*
X0112574Y0009675D01*
X0112622Y0009713D02*
X0111674Y0009713D01*
X0111620Y0009751D02*
X0112669Y0009751D01*
X0112717Y0009788D02*
X0111597Y0009788D01*
X0111624Y0009826D02*
X0112694Y0009826D01*
X0112667Y0009864D02*
X0111650Y0009864D01*
X0111677Y0009902D02*
X0112640Y0009902D01*
X0112614Y0009940D02*
X0111704Y0009940D01*
X0111641Y0009978D02*
X0112632Y0009978D01*
X0112708Y0010016D02*
X0111565Y0010016D01*
X0111490Y0010054D02*
X0112783Y0010054D01*
X0112859Y0010092D02*
X0111414Y0010092D01*
X0111379Y0010129D02*
X0112914Y0010129D01*
X0112939Y0010167D02*
X0111356Y0010167D01*
X0111334Y0010205D02*
X0112960Y0010205D01*
X0112981Y0010243D02*
X0111312Y0010243D01*
X0111291Y0010281D02*
X0113003Y0010281D01*
X0113024Y0010319D02*
X0111282Y0010319D01*
X0111289Y0010357D02*
X0113027Y0010357D01*
X0107778Y0012061D02*
X0107692Y0012061D01*
X0107755Y0012099D02*
X0107514Y0012099D01*
X0107336Y0012137D02*
X0107732Y0012137D01*
X0107708Y0012175D02*
X0107158Y0012175D01*
X0106979Y0012213D02*
X0107685Y0012213D01*
X0107662Y0012251D02*
X0106801Y0012251D01*
X0106650Y0012289D02*
X0107638Y0012289D01*
X0107615Y0012327D02*
X0106636Y0012327D01*
X0106621Y0012364D02*
X0107591Y0012364D01*
X0107568Y0012402D02*
X0106606Y0012402D01*
X0106591Y0012440D02*
X0107545Y0012440D01*
X0107521Y0012478D02*
X0106576Y0012478D01*
X0106561Y0012516D02*
X0107362Y0012516D01*
X0107169Y0012554D02*
X0106546Y0012554D01*
X0106531Y0012592D02*
X0106982Y0012592D01*
X0106968Y0012630D02*
X0106516Y0012630D01*
X0106501Y0012667D02*
X0106954Y0012667D01*
X0106940Y0012705D02*
X0106487Y0012705D01*
X0106472Y0012743D02*
X0106925Y0012743D01*
X0106911Y0012781D02*
X0106457Y0012781D01*
X0106442Y0012819D02*
X0106897Y0012819D01*
X0106883Y0012857D02*
X0106427Y0012857D01*
X0106412Y0012895D02*
X0106868Y0012895D01*
X0106854Y0012933D02*
X0106397Y0012933D01*
X0106382Y0012971D02*
X0106840Y0012971D01*
X0106826Y0013008D02*
X0106367Y0013008D01*
X0106352Y0013046D02*
X0106811Y0013046D01*
X0106797Y0013084D02*
X0106338Y0013084D01*
X0106307Y0013122D02*
X0106783Y0013122D01*
X0106769Y0013160D02*
X0106251Y0013160D01*
X0106195Y0013198D02*
X0106763Y0013198D01*
X0106787Y0013236D02*
X0106140Y0013236D01*
X0106084Y0013274D02*
X0106812Y0013274D01*
X0106836Y0013311D02*
X0106047Y0013311D01*
X0106032Y0013349D02*
X0106860Y0013349D01*
X0106885Y0013387D02*
X0106017Y0013387D01*
X0106002Y0013425D02*
X0106909Y0013425D01*
X0106934Y0013463D02*
X0105987Y0013463D01*
X0105972Y0013501D02*
X0106958Y0013501D01*
X0107052Y0013539D02*
X0105957Y0013539D01*
X0105943Y0013577D02*
X0107185Y0013577D01*
X0107019Y0013955D02*
X0107464Y0013955D01*
X0107526Y0013918D02*
X0106875Y0013918D01*
X0106864Y0013918D02*
X0106051Y0013918D01*
X0106050Y0013955D02*
X0106795Y0013955D01*
X0106727Y0013993D02*
X0106029Y0013993D01*
X0106005Y0014031D02*
X0106658Y0014031D01*
X0106589Y0014069D02*
X0105982Y0014069D01*
X0105959Y0014107D02*
X0106520Y0014107D01*
X0106485Y0014145D02*
X0105933Y0014145D01*
X0105913Y0014183D02*
X0106472Y0014183D01*
X0106452Y0014221D02*
X0105893Y0014221D01*
X0105873Y0014258D02*
X0106432Y0014258D01*
X0106411Y0014296D02*
X0105853Y0014296D01*
X0105832Y0014334D02*
X0106391Y0014334D01*
X0106370Y0014372D02*
X0105812Y0014372D01*
X0105763Y0014410D02*
X0106349Y0014410D01*
X0106329Y0014448D02*
X0105674Y0014448D01*
X0105585Y0014486D02*
X0106308Y0014486D01*
X0106288Y0014524D02*
X0105495Y0014524D01*
X0105432Y0014562D02*
X0106267Y0014562D01*
X0106246Y0014599D02*
X0105416Y0014599D01*
X0105400Y0014637D02*
X0106233Y0014637D01*
X0106037Y0013880D02*
X0107589Y0013880D01*
X0107651Y0013842D02*
X0106023Y0013842D01*
X0106009Y0013804D02*
X0107714Y0013804D01*
X0107777Y0013766D02*
X0105994Y0013766D01*
X0105980Y0013728D02*
X0107839Y0013728D01*
X0107902Y0013690D02*
X0105966Y0013690D01*
X0107164Y0013993D02*
X0107401Y0013993D01*
X0107339Y0014031D02*
X0107309Y0014031D01*
X0107580Y0014107D02*
X0107827Y0014107D01*
X0107765Y0014069D02*
X0107642Y0014069D01*
X0107252Y0014410D02*
X0107133Y0014410D01*
X0107163Y0014372D02*
X0107199Y0014372D01*
X0110220Y0016342D02*
X0111851Y0016342D01*
X0111809Y0016380D02*
X0110271Y0016380D01*
X0110323Y0016418D02*
X0111752Y0016418D01*
X0111695Y0016456D02*
X0110374Y0016456D01*
X0110426Y0016493D02*
X0111639Y0016493D01*
X0111582Y0016531D02*
X0110477Y0016531D01*
X0110529Y0016569D02*
X0111525Y0016569D01*
X0111468Y0016607D02*
X0110580Y0016607D01*
X0110592Y0016645D02*
X0111452Y0016645D01*
X0111480Y0016683D02*
X0110559Y0016683D01*
X0110527Y0016721D02*
X0111509Y0016721D01*
X0111538Y0016759D02*
X0110516Y0016759D01*
X0110562Y0016797D02*
X0111511Y0016797D01*
X0111473Y0016834D02*
X0110609Y0016834D01*
X0110655Y0016872D02*
X0111435Y0016872D01*
X0111397Y0016910D02*
X0110702Y0016910D01*
X0110598Y0017251D02*
X0109991Y0017251D01*
X0109134Y0017251D01*
X0109134Y0017213D02*
X0109991Y0017213D01*
X0111009Y0017213D01*
X0111067Y0017213D02*
X0112247Y0017213D01*
X0112901Y0017213D01*
X0112901Y0017175D02*
X0112247Y0017175D01*
X0109991Y0017175D01*
X0109134Y0017175D01*
X0109134Y0017139D02*
X0109376Y0016913D01*
X0109991Y0016913D01*
X0109991Y0017397D01*
X0109942Y0017414D01*
X0109772Y0017672D01*
X0109772Y0017689D01*
X0109705Y0017672D01*
X0109705Y0017738D01*
X0109309Y0017738D01*
X0109293Y0018134D01*
X0109997Y0018134D01*
X0109997Y0018376D01*
X0109892Y0018393D01*
X0109634Y0018701D01*
X0109667Y0019113D01*
X0109975Y0019372D01*
X0109991Y0019372D01*
X0109991Y0020043D01*
X0109183Y0020043D01*
X0109183Y0020048D01*
X0108908Y0019839D01*
X0108908Y0019289D01*
X0108842Y0019306D01*
X0108633Y0019064D01*
X0108551Y0019135D01*
X0108430Y0018965D01*
X0108325Y0018965D01*
X0108325Y0018915D01*
X0108413Y0018915D01*
X0108391Y0018827D01*
X0108408Y0018739D01*
X0108320Y0018739D01*
X0108320Y0018690D01*
X0108408Y0018690D01*
X0108528Y0018519D01*
X0108633Y0018585D01*
X0108820Y0018343D01*
X0108908Y0018376D01*
X0108908Y0017843D01*
X0109134Y0017656D01*
X0109134Y0017139D01*
X0109135Y0017137D02*
X0109991Y0017137D01*
X0112247Y0017137D01*
X0112894Y0017137D01*
X0112901Y0017144D02*
X0112901Y0017661D01*
X0113127Y0017848D01*
X0113127Y0018365D01*
X0113154Y0018343D01*
X0113341Y0018585D01*
X0113445Y0018519D01*
X0113566Y0018690D01*
X0113753Y0018706D01*
X0113809Y0018552D01*
X0113962Y0018552D01*
X0114012Y0018640D01*
X0114221Y0018640D01*
X0114391Y0018673D01*
X0114458Y0018844D01*
X0114391Y0018998D01*
X0114221Y0019036D01*
X0113995Y0019036D01*
X0113946Y0019124D01*
X0113825Y0019124D01*
X0113759Y0018987D01*
X0113550Y0018970D01*
X0113550Y0018954D01*
X0113363Y0018954D01*
X0113363Y0018937D01*
X0113759Y0018937D01*
X0113742Y0018833D01*
X0113742Y0018767D01*
X0113952Y0018767D01*
X0113952Y0018734D01*
X0113765Y0018734D01*
X0113737Y0018761D01*
X0113566Y0018739D01*
X0113566Y0018723D01*
X0113358Y0018723D01*
X0113374Y0018739D01*
X0113561Y0018739D01*
X0113583Y0018827D01*
X0113566Y0018915D01*
X0113380Y0018915D01*
X0113363Y0018932D01*
X0113313Y0018932D01*
X0113313Y0018948D01*
X0113363Y0018948D01*
X0113363Y0018965D01*
X0113550Y0018965D01*
X0113429Y0019135D01*
X0113341Y0019069D01*
X0113132Y0019311D01*
X0113116Y0019311D01*
X0113116Y0019845D01*
X0112857Y0020054D01*
X0112241Y0020054D01*
X0112241Y0019273D01*
X0112434Y0019119D01*
X0112466Y0018723D01*
X0112241Y0018448D01*
X0112241Y0018156D01*
X0112450Y0018156D01*
X0112466Y0017760D01*
X0112296Y0017760D01*
X0112296Y0017672D01*
X0112247Y0017639D01*
X0112247Y0016919D01*
X0112659Y0016919D01*
X0112901Y0017144D01*
X0112853Y0017100D02*
X0112247Y0017100D01*
X0109991Y0017100D01*
X0109175Y0017100D01*
X0109216Y0017062D02*
X0109991Y0017062D01*
X0112247Y0017062D01*
X0112812Y0017062D01*
X0112772Y0017024D02*
X0112247Y0017024D01*
X0109991Y0017024D01*
X0109257Y0017024D01*
X0109297Y0016986D02*
X0109991Y0016986D01*
X0112247Y0016986D01*
X0112731Y0016986D01*
X0112691Y0016948D02*
X0112247Y0016948D01*
X0109991Y0016948D01*
X0109338Y0016948D01*
X0109134Y0017289D02*
X0109991Y0017289D01*
X0110250Y0017289D01*
X0110164Y0017327D02*
X0109991Y0017327D01*
X0109134Y0017327D01*
X0109134Y0017365D02*
X0109991Y0017365D01*
X0110078Y0017365D01*
X0109991Y0017403D02*
X0109992Y0017403D01*
X0109975Y0017403D02*
X0109134Y0017403D01*
X0109134Y0017441D02*
X0109924Y0017441D01*
X0109899Y0017478D02*
X0109134Y0017478D01*
X0109134Y0017516D02*
X0109874Y0017516D01*
X0109849Y0017554D02*
X0109134Y0017554D01*
X0109134Y0017592D02*
X0109824Y0017592D01*
X0109799Y0017630D02*
X0109134Y0017630D01*
X0109119Y0017668D02*
X0109774Y0017668D01*
X0109705Y0017706D02*
X0109073Y0017706D01*
X0109028Y0017744D02*
X0109309Y0017744D01*
X0109308Y0017781D02*
X0108982Y0017781D01*
X0108936Y0017819D02*
X0109306Y0017819D01*
X0109305Y0017857D02*
X0108908Y0017857D01*
X0108908Y0017895D02*
X0109303Y0017895D01*
X0109301Y0017933D02*
X0108908Y0017933D01*
X0108908Y0017971D02*
X0109300Y0017971D01*
X0109298Y0018009D02*
X0108908Y0018009D01*
X0108908Y0018047D02*
X0109297Y0018047D01*
X0109295Y0018085D02*
X0108908Y0018085D01*
X0108908Y0018122D02*
X0109293Y0018122D01*
X0108908Y0018160D02*
X0109997Y0018160D01*
X0109991Y0018160D02*
X0112241Y0018160D01*
X0113127Y0018160D01*
X0113127Y0018122D02*
X0112451Y0018122D01*
X0112453Y0018085D02*
X0113127Y0018085D01*
X0113127Y0018047D02*
X0112455Y0018047D01*
X0112456Y0018009D02*
X0113127Y0018009D01*
X0113127Y0017971D02*
X0112458Y0017971D01*
X0112459Y0017933D02*
X0113127Y0017933D01*
X0113127Y0017895D02*
X0112461Y0017895D01*
X0112462Y0017857D02*
X0113127Y0017857D01*
X0113092Y0017819D02*
X0112464Y0017819D01*
X0112466Y0017781D02*
X0113046Y0017781D01*
X0113000Y0017744D02*
X0112296Y0017744D01*
X0112296Y0017706D02*
X0112955Y0017706D01*
X0112909Y0017668D02*
X0112289Y0017668D01*
X0112247Y0017630D02*
X0112234Y0017630D01*
X0112247Y0017630D02*
X0112901Y0017630D01*
X0112901Y0017592D02*
X0112247Y0017592D01*
X0112182Y0017592D01*
X0112130Y0017554D02*
X0112247Y0017554D01*
X0112901Y0017554D01*
X0112901Y0017516D02*
X0112247Y0017516D01*
X0112078Y0017516D01*
X0112026Y0017478D02*
X0112247Y0017478D01*
X0112901Y0017478D01*
X0112901Y0017441D02*
X0112247Y0017441D01*
X0111974Y0017441D01*
X0111922Y0017403D02*
X0112247Y0017403D01*
X0112901Y0017403D01*
X0112901Y0017365D02*
X0112247Y0017365D01*
X0111870Y0017365D01*
X0111818Y0017327D02*
X0112247Y0017327D01*
X0112901Y0017327D01*
X0112901Y0017289D02*
X0112247Y0017289D01*
X0111702Y0017289D01*
X0111385Y0017251D02*
X0112247Y0017251D01*
X0112901Y0017251D01*
X0113127Y0018198D02*
X0112241Y0018198D01*
X0109991Y0018198D01*
X0109997Y0018198D02*
X0108908Y0018198D01*
X0108908Y0018236D02*
X0109997Y0018236D01*
X0109991Y0018236D02*
X0112241Y0018236D01*
X0113127Y0018236D01*
X0113127Y0018274D02*
X0112241Y0018274D01*
X0109991Y0018274D01*
X0109997Y0018274D02*
X0108908Y0018274D01*
X0108908Y0018312D02*
X0109997Y0018312D01*
X0109991Y0018312D02*
X0112241Y0018312D01*
X0113127Y0018312D01*
X0113127Y0018350D02*
X0112241Y0018350D01*
X0109991Y0018350D01*
X0109997Y0018350D02*
X0108908Y0018350D01*
X0108837Y0018350D02*
X0108815Y0018350D01*
X0108786Y0018388D02*
X0109925Y0018388D01*
X0109991Y0018382D02*
X0109991Y0018140D01*
X0112241Y0018156D01*
X0112241Y0018448D01*
X0112208Y0018398D01*
X0111795Y0018365D01*
X0111487Y0018624D01*
X0111455Y0019036D01*
X0111625Y0019295D01*
X0111900Y0019416D01*
X0112109Y0019383D01*
X0112247Y0019278D01*
X0112247Y0020054D01*
X0111576Y0020054D01*
X0110671Y0020054D01*
X0110673Y0020048D02*
X0109986Y0020048D01*
X0109991Y0019377D01*
X0110178Y0019410D01*
X0110476Y0019289D01*
X0110646Y0019036D01*
X0110608Y0018618D01*
X0110299Y0018365D01*
X0109991Y0018382D01*
X0109865Y0018425D02*
X0108756Y0018425D01*
X0108727Y0018463D02*
X0109833Y0018463D01*
X0109801Y0018501D02*
X0108698Y0018501D01*
X0108669Y0018539D02*
X0109770Y0018539D01*
X0109738Y0018577D02*
X0108639Y0018577D01*
X0108620Y0018577D02*
X0108488Y0018577D01*
X0108514Y0018539D02*
X0108560Y0018539D01*
X0108461Y0018615D02*
X0109706Y0018615D01*
X0109674Y0018653D02*
X0108434Y0018653D01*
X0108408Y0018706D02*
X0108408Y0018739D01*
X0108595Y0018739D01*
X0108616Y0018706D01*
X0108408Y0018706D01*
X0108408Y0018728D02*
X0108320Y0018728D01*
X0108325Y0018728D02*
X0108281Y0018728D01*
X0108276Y0018723D02*
X0108105Y0018723D01*
X0108105Y0018706D01*
X0108088Y0018706D01*
X0108088Y0018756D01*
X0108298Y0018739D01*
X0108298Y0018915D01*
X0108330Y0018915D01*
X0108330Y0018965D01*
X0108110Y0018965D01*
X0108110Y0018981D01*
X0108298Y0018981D01*
X0108231Y0019119D01*
X0108110Y0019119D01*
X0108045Y0019031D01*
X0108045Y0019032D02*
X0108273Y0019032D01*
X0108255Y0019069D02*
X0108074Y0019069D01*
X0108102Y0019107D02*
X0108237Y0019107D01*
X0108292Y0018994D02*
X0107656Y0018994D01*
X0107665Y0019014D02*
X0107599Y0018860D01*
X0107648Y0018690D01*
X0107819Y0018657D01*
X0108028Y0018657D01*
X0108066Y0018552D01*
X0108204Y0018536D01*
X0108276Y0018690D01*
X0108325Y0018690D01*
X0108325Y0018739D01*
X0108292Y0018739D01*
X0108276Y0018723D01*
X0108298Y0018766D02*
X0107626Y0018766D01*
X0107637Y0018728D02*
X0108088Y0018728D01*
X0108029Y0018653D02*
X0108258Y0018653D01*
X0108241Y0018615D02*
X0108043Y0018615D01*
X0108057Y0018577D02*
X0108223Y0018577D01*
X0108206Y0018539D02*
X0108176Y0018539D01*
X0108320Y0018691D02*
X0108616Y0018691D01*
X0108616Y0018690D02*
X0108616Y0018706D01*
X0108666Y0018690D01*
X0108666Y0018673D01*
X0108616Y0018690D01*
X0108602Y0018728D02*
X0109636Y0018728D01*
X0109642Y0018691D02*
X0108820Y0018691D01*
X0108820Y0018690D02*
X0108666Y0018690D01*
X0108683Y0018723D01*
X0108820Y0018723D01*
X0108820Y0018690D01*
X0108666Y0018691D02*
X0108663Y0018691D01*
X0108683Y0018899D02*
X0108600Y0018915D01*
X0108616Y0018948D01*
X0108430Y0018948D01*
X0108430Y0018965D01*
X0108616Y0018965D01*
X0108616Y0018948D01*
X0108683Y0018932D01*
X0108683Y0018899D01*
X0108683Y0018918D02*
X0109651Y0018918D01*
X0109654Y0018956D02*
X0108616Y0018956D01*
X0108601Y0018918D02*
X0108325Y0018918D01*
X0108330Y0018918D02*
X0107624Y0018918D01*
X0107640Y0018956D02*
X0108330Y0018956D01*
X0108325Y0018956D02*
X0108430Y0018956D01*
X0108450Y0018994D02*
X0109657Y0018994D01*
X0109660Y0019032D02*
X0108477Y0019032D01*
X0108504Y0019069D02*
X0108626Y0019069D01*
X0108638Y0019069D02*
X0109663Y0019069D01*
X0109667Y0019107D02*
X0108671Y0019107D01*
X0108703Y0019145D02*
X0109705Y0019145D01*
X0109750Y0019183D02*
X0108736Y0019183D01*
X0108769Y0019221D02*
X0109795Y0019221D01*
X0109841Y0019259D02*
X0108802Y0019259D01*
X0108834Y0019297D02*
X0108878Y0019297D01*
X0108908Y0019297D02*
X0109886Y0019297D01*
X0109931Y0019335D02*
X0108908Y0019335D01*
X0108908Y0019372D02*
X0109991Y0019372D01*
X0109991Y0019410D02*
X0108908Y0019410D01*
X0108908Y0019448D02*
X0109991Y0019448D01*
X0112247Y0019448D01*
X0112241Y0019448D02*
X0113116Y0019448D01*
X0113116Y0019410D02*
X0112241Y0019410D01*
X0112247Y0019410D02*
X0111934Y0019410D01*
X0111888Y0019410D02*
X0109991Y0019410D01*
X0109991Y0019486D02*
X0108908Y0019486D01*
X0108908Y0019524D02*
X0109991Y0019524D01*
X0109990Y0019524D02*
X0112247Y0019524D01*
X0112241Y0019524D02*
X0113116Y0019524D01*
X0113116Y0019562D02*
X0112241Y0019562D01*
X0112247Y0019562D02*
X0109990Y0019562D01*
X0109991Y0019562D02*
X0108908Y0019562D01*
X0108908Y0019600D02*
X0109991Y0019600D01*
X0109990Y0019600D02*
X0112247Y0019600D01*
X0112241Y0019600D02*
X0113116Y0019600D01*
X0113116Y0019638D02*
X0112241Y0019638D01*
X0112247Y0019638D02*
X0109989Y0019638D01*
X0109991Y0019638D02*
X0108908Y0019638D01*
X0108908Y0019676D02*
X0109991Y0019676D01*
X0109989Y0019676D02*
X0112247Y0019676D01*
X0112241Y0019676D02*
X0113116Y0019676D01*
X0113116Y0019713D02*
X0112241Y0019713D01*
X0112247Y0019713D02*
X0109989Y0019713D01*
X0109991Y0019713D02*
X0108908Y0019713D01*
X0108908Y0019751D02*
X0109991Y0019751D01*
X0109988Y0019751D02*
X0112247Y0019751D01*
X0112241Y0019751D02*
X0113116Y0019751D01*
X0113116Y0019789D02*
X0112241Y0019789D01*
X0112247Y0019789D02*
X0109988Y0019789D01*
X0109991Y0019789D02*
X0108908Y0019789D01*
X0108908Y0019827D02*
X0109991Y0019827D01*
X0109988Y0019827D02*
X0112247Y0019827D01*
X0112241Y0019827D02*
X0113116Y0019827D01*
X0113090Y0019865D02*
X0112241Y0019865D01*
X0112247Y0019865D02*
X0109987Y0019865D01*
X0109991Y0019865D02*
X0108942Y0019865D01*
X0108992Y0019903D02*
X0109991Y0019903D01*
X0109987Y0019903D02*
X0112247Y0019903D01*
X0112241Y0019903D02*
X0113044Y0019903D01*
X0112997Y0019941D02*
X0112241Y0019941D01*
X0112247Y0019941D02*
X0109987Y0019941D01*
X0109991Y0019941D02*
X0109042Y0019941D01*
X0109091Y0019979D02*
X0109991Y0019979D01*
X0109987Y0019979D02*
X0112247Y0019979D01*
X0112241Y0019979D02*
X0112950Y0019979D01*
X0112903Y0020016D02*
X0112241Y0020016D01*
X0112247Y0020016D02*
X0109986Y0020016D01*
X0109991Y0020016D02*
X0109141Y0020016D01*
X0109991Y0019486D02*
X0112247Y0019486D01*
X0112241Y0019486D02*
X0113116Y0019486D01*
X0113116Y0019372D02*
X0112241Y0019372D01*
X0112247Y0019372D02*
X0112122Y0019372D01*
X0112172Y0019335D02*
X0112247Y0019335D01*
X0112241Y0019335D02*
X0113116Y0019335D01*
X0113145Y0019297D02*
X0112241Y0019297D01*
X0112247Y0019297D02*
X0112222Y0019297D01*
X0112258Y0019259D02*
X0113177Y0019259D01*
X0113210Y0019221D02*
X0112306Y0019221D01*
X0112353Y0019183D02*
X0113243Y0019183D01*
X0113275Y0019145D02*
X0112400Y0019145D01*
X0112434Y0019107D02*
X0113308Y0019107D01*
X0113341Y0019069D02*
X0112438Y0019069D01*
X0112441Y0019032D02*
X0113503Y0019032D01*
X0113476Y0019069D02*
X0113341Y0019069D01*
X0113392Y0019107D02*
X0113449Y0019107D01*
X0113529Y0018994D02*
X0112444Y0018994D01*
X0112447Y0018956D02*
X0113209Y0018956D01*
X0113209Y0018948D02*
X0113209Y0018965D01*
X0113313Y0018965D01*
X0113313Y0018948D01*
X0113209Y0018948D01*
X0113209Y0018932D02*
X0113313Y0018932D01*
X0113313Y0018915D01*
X0113209Y0018915D01*
X0113209Y0018932D01*
X0113209Y0018918D02*
X0112450Y0018918D01*
X0112453Y0018880D02*
X0113573Y0018880D01*
X0113580Y0018842D02*
X0112457Y0018842D01*
X0112460Y0018804D02*
X0113577Y0018804D01*
X0113568Y0018766D02*
X0112463Y0018766D01*
X0112466Y0018728D02*
X0113203Y0018728D01*
X0113203Y0018739D02*
X0113308Y0018739D01*
X0113308Y0018723D01*
X0113358Y0018723D01*
X0113358Y0018690D01*
X0113308Y0018690D01*
X0113308Y0018723D01*
X0113220Y0018723D01*
X0113220Y0018690D01*
X0113203Y0018690D01*
X0113203Y0018739D01*
X0113203Y0018691D02*
X0112440Y0018691D01*
X0112409Y0018653D02*
X0113540Y0018653D01*
X0113513Y0018615D02*
X0112378Y0018615D01*
X0112347Y0018577D02*
X0113335Y0018577D01*
X0113354Y0018577D02*
X0113486Y0018577D01*
X0113460Y0018539D02*
X0113414Y0018539D01*
X0113305Y0018539D02*
X0112316Y0018539D01*
X0112285Y0018501D02*
X0113276Y0018501D01*
X0113247Y0018463D02*
X0112254Y0018463D01*
X0112241Y0018425D02*
X0113218Y0018425D01*
X0113188Y0018388D02*
X0112241Y0018388D01*
X0112075Y0018388D01*
X0112226Y0018425D02*
X0112241Y0018425D01*
X0112000Y0018691D02*
X0111811Y0018691D01*
X0111773Y0018728D02*
X0112038Y0018728D01*
X0112048Y0018739D02*
X0111905Y0018882D01*
X0111762Y0018739D01*
X0111905Y0018596D01*
X0112048Y0018739D01*
X0112021Y0018766D02*
X0111790Y0018766D01*
X0111828Y0018804D02*
X0111983Y0018804D01*
X0111946Y0018842D02*
X0111865Y0018842D01*
X0111903Y0018880D02*
X0111908Y0018880D01*
X0111962Y0018653D02*
X0111849Y0018653D01*
X0111887Y0018615D02*
X0111924Y0018615D01*
X0111769Y0018388D02*
X0110327Y0018388D01*
X0110373Y0018425D02*
X0111724Y0018425D01*
X0111679Y0018463D02*
X0110419Y0018463D01*
X0110465Y0018501D02*
X0111633Y0018501D01*
X0111588Y0018539D02*
X0110511Y0018539D01*
X0110557Y0018577D02*
X0111543Y0018577D01*
X0111498Y0018615D02*
X0110603Y0018615D01*
X0110611Y0018653D02*
X0111485Y0018653D01*
X0111482Y0018691D02*
X0110614Y0018691D01*
X0110618Y0018728D02*
X0111479Y0018728D01*
X0111476Y0018766D02*
X0110621Y0018766D01*
X0110625Y0018804D02*
X0111473Y0018804D01*
X0111470Y0018842D02*
X0110628Y0018842D01*
X0110632Y0018880D02*
X0111467Y0018880D01*
X0111464Y0018918D02*
X0110635Y0018918D01*
X0110639Y0018956D02*
X0111461Y0018956D01*
X0111458Y0018994D02*
X0110642Y0018994D01*
X0110646Y0019032D02*
X0111455Y0019032D01*
X0111476Y0019069D02*
X0110624Y0019069D01*
X0110598Y0019107D02*
X0111501Y0019107D01*
X0111526Y0019145D02*
X0110573Y0019145D01*
X0110547Y0019183D02*
X0111551Y0019183D01*
X0111576Y0019221D02*
X0110521Y0019221D01*
X0110496Y0019259D02*
X0111601Y0019259D01*
X0111630Y0019297D02*
X0110457Y0019297D01*
X0110364Y0019335D02*
X0111716Y0019335D01*
X0111802Y0019372D02*
X0110271Y0019372D01*
X0110234Y0018882D02*
X0110377Y0018739D01*
X0110234Y0018596D01*
X0110091Y0018739D01*
X0110234Y0018882D01*
X0110236Y0018880D02*
X0110231Y0018880D01*
X0110193Y0018842D02*
X0110274Y0018842D01*
X0110311Y0018804D02*
X0110156Y0018804D01*
X0110118Y0018766D02*
X0110349Y0018766D01*
X0110366Y0018728D02*
X0110101Y0018728D01*
X0110139Y0018691D02*
X0110328Y0018691D01*
X0110290Y0018653D02*
X0110177Y0018653D01*
X0110215Y0018615D02*
X0110252Y0018615D01*
X0109639Y0018766D02*
X0108402Y0018766D01*
X0108395Y0018804D02*
X0109642Y0018804D01*
X0109645Y0018842D02*
X0108395Y0018842D01*
X0108404Y0018880D02*
X0109648Y0018880D01*
X0108837Y0018948D02*
X0108820Y0018932D01*
X0108683Y0018932D01*
X0108666Y0018948D01*
X0108837Y0018948D01*
X0108583Y0019107D02*
X0108531Y0019107D01*
X0108298Y0018880D02*
X0107608Y0018880D01*
X0107604Y0018842D02*
X0108298Y0018842D01*
X0108298Y0018804D02*
X0107615Y0018804D01*
X0107648Y0018691D02*
X0108325Y0018691D01*
X0108045Y0019031D02*
X0107835Y0019047D01*
X0107665Y0019014D01*
X0107755Y0019032D02*
X0108034Y0019032D01*
X0110673Y0020048D02*
X0110657Y0020098D01*
X0110899Y0020268D01*
X0110833Y0020356D01*
X0111003Y0020461D01*
X0110987Y0020290D01*
X0111003Y0020290D01*
X0111003Y0020257D01*
X0110987Y0020257D01*
X0110987Y0020087D01*
X0111003Y0020087D01*
X0111003Y0020257D01*
X0111037Y0020257D01*
X0111037Y0020290D01*
X0111003Y0020290D01*
X0111020Y0020461D01*
X0111003Y0020461D01*
X0111003Y0020631D01*
X0111020Y0020631D01*
X0111020Y0020802D01*
X0111037Y0020802D01*
X0111037Y0020818D01*
X0111003Y0020818D01*
X0111003Y0020631D01*
X0110849Y0020697D01*
X0110849Y0020802D01*
X0110866Y0020818D01*
X0110954Y0020868D01*
X0110954Y0021093D01*
X0110987Y0021269D01*
X0111141Y0021335D01*
X0111312Y0021247D01*
X0111345Y0021077D01*
X0111344Y0021077D02*
X0110954Y0021077D01*
X0110954Y0021039D02*
X0111342Y0021039D01*
X0111339Y0021001D02*
X0110954Y0021001D01*
X0110954Y0020963D02*
X0111336Y0020963D01*
X0111333Y0020926D02*
X0110954Y0020926D01*
X0110954Y0020888D02*
X0111330Y0020888D01*
X0111328Y0020868D02*
X0111345Y0021077D01*
X0111337Y0021115D02*
X0110958Y0021115D01*
X0110965Y0021153D02*
X0111330Y0021153D01*
X0111322Y0021191D02*
X0110972Y0021191D01*
X0110979Y0021229D02*
X0111315Y0021229D01*
X0111274Y0021267D02*
X0110987Y0021267D01*
X0111069Y0021304D02*
X0111201Y0021304D01*
X0111328Y0020868D02*
X0111433Y0020818D01*
X0111433Y0020681D01*
X0111278Y0020631D01*
X0111278Y0020802D01*
X0111262Y0020802D01*
X0111262Y0020631D01*
X0111278Y0020631D01*
X0111278Y0020461D01*
X0111262Y0020461D01*
X0111262Y0020307D01*
X0111245Y0020307D01*
X0111245Y0020461D01*
X0111229Y0020461D01*
X0111229Y0020615D01*
X0111245Y0020637D01*
X0111245Y0020807D01*
X0111229Y0020824D01*
X0111229Y0020615D01*
X0111141Y0020615D01*
X0111037Y0020631D01*
X0111037Y0020461D01*
X0111124Y0020477D01*
X0111229Y0020461D01*
X0111229Y0020307D01*
X0111245Y0020307D01*
X0111245Y0020257D01*
X0111229Y0020257D01*
X0111229Y0020087D01*
X0111245Y0020087D01*
X0111245Y0020257D01*
X0111262Y0020257D01*
X0111262Y0020307D01*
X0111278Y0020461D01*
X0111433Y0020356D01*
X0111383Y0020290D01*
X0111609Y0020120D01*
X0111576Y0020054D01*
X0111595Y0020092D02*
X0111245Y0020092D01*
X0111229Y0020092D02*
X0111003Y0020092D01*
X0110987Y0020092D02*
X0110659Y0020092D01*
X0110703Y0020130D02*
X0110987Y0020130D01*
X0111003Y0020130D02*
X0111229Y0020130D01*
X0111245Y0020130D02*
X0111595Y0020130D01*
X0111545Y0020168D02*
X0111245Y0020168D01*
X0111229Y0020168D02*
X0111003Y0020168D01*
X0110987Y0020168D02*
X0110757Y0020168D01*
X0110811Y0020206D02*
X0110987Y0020206D01*
X0111003Y0020206D02*
X0111229Y0020206D01*
X0111245Y0020206D02*
X0111495Y0020206D01*
X0111444Y0020244D02*
X0111245Y0020244D01*
X0111229Y0020244D02*
X0111003Y0020244D01*
X0110987Y0020244D02*
X0110864Y0020244D01*
X0110889Y0020282D02*
X0111003Y0020282D01*
X0111037Y0020282D02*
X0111245Y0020282D01*
X0111262Y0020282D02*
X0111394Y0020282D01*
X0111405Y0020320D02*
X0111263Y0020320D01*
X0111262Y0020320D02*
X0111245Y0020320D01*
X0111229Y0020320D02*
X0111006Y0020320D01*
X0110990Y0020320D02*
X0110861Y0020320D01*
X0110835Y0020357D02*
X0110993Y0020357D01*
X0111010Y0020357D02*
X0111229Y0020357D01*
X0111245Y0020357D02*
X0111262Y0020357D01*
X0111267Y0020357D02*
X0111431Y0020357D01*
X0111375Y0020395D02*
X0111271Y0020395D01*
X0111262Y0020395D02*
X0111245Y0020395D01*
X0111229Y0020395D02*
X0111014Y0020395D01*
X0110997Y0020395D02*
X0110897Y0020395D01*
X0110959Y0020433D02*
X0111001Y0020433D01*
X0111017Y0020433D02*
X0111229Y0020433D01*
X0111245Y0020433D02*
X0111262Y0020433D01*
X0111276Y0020433D02*
X0111319Y0020433D01*
X0111278Y0020471D02*
X0111229Y0020471D01*
X0111229Y0020509D02*
X0111278Y0020509D01*
X0111278Y0020547D02*
X0111229Y0020547D01*
X0111229Y0020585D02*
X0111278Y0020585D01*
X0111278Y0020623D02*
X0111235Y0020623D01*
X0111229Y0020623D02*
X0111091Y0020623D01*
X0111037Y0020623D02*
X0111003Y0020623D01*
X0111003Y0020660D02*
X0110935Y0020660D01*
X0111003Y0020698D02*
X0110849Y0020698D01*
X0110849Y0020736D02*
X0111003Y0020736D01*
X0111020Y0020736D02*
X0111229Y0020736D01*
X0111245Y0020736D02*
X0111262Y0020736D01*
X0111278Y0020736D02*
X0111433Y0020736D01*
X0111433Y0020698D02*
X0111278Y0020698D01*
X0111262Y0020698D02*
X0111245Y0020698D01*
X0111229Y0020698D02*
X0111020Y0020698D01*
X0111020Y0020660D02*
X0111229Y0020660D01*
X0111245Y0020660D02*
X0111262Y0020660D01*
X0111278Y0020660D02*
X0111369Y0020660D01*
X0111433Y0020774D02*
X0111278Y0020774D01*
X0111262Y0020774D02*
X0111245Y0020774D01*
X0111229Y0020774D02*
X0111020Y0020774D01*
X0111003Y0020774D02*
X0110849Y0020774D01*
X0110860Y0020812D02*
X0111003Y0020812D01*
X0111037Y0020812D02*
X0111229Y0020812D01*
X0111241Y0020812D02*
X0111433Y0020812D01*
X0111366Y0020850D02*
X0110922Y0020850D01*
X0111003Y0020585D02*
X0111037Y0020585D01*
X0111037Y0020547D02*
X0111003Y0020547D01*
X0111003Y0020509D02*
X0111037Y0020509D01*
X0111037Y0020471D02*
X0111003Y0020471D01*
X0111092Y0020471D02*
X0111164Y0020471D01*
X0113313Y0018956D02*
X0113363Y0018956D01*
X0113377Y0018918D02*
X0113313Y0018918D01*
X0113308Y0018728D02*
X0113363Y0018728D01*
X0113358Y0018691D02*
X0113577Y0018691D01*
X0113566Y0018728D02*
X0114413Y0018728D01*
X0114398Y0018691D02*
X0113759Y0018691D01*
X0113773Y0018653D02*
X0114286Y0018653D01*
X0114428Y0018766D02*
X0113952Y0018766D01*
X0113998Y0018615D02*
X0113786Y0018615D01*
X0113800Y0018577D02*
X0113976Y0018577D01*
X0113742Y0018804D02*
X0114442Y0018804D01*
X0114457Y0018842D02*
X0113744Y0018842D01*
X0113750Y0018880D02*
X0114442Y0018880D01*
X0114426Y0018918D02*
X0113756Y0018918D01*
X0113759Y0018970D02*
X0113759Y0018987D01*
X0113946Y0018987D01*
X0113946Y0018937D01*
X0113930Y0018937D01*
X0113930Y0018970D01*
X0113759Y0018970D01*
X0113762Y0018994D02*
X0114393Y0018994D01*
X0114409Y0018956D02*
X0113946Y0018956D01*
X0113930Y0018956D02*
X0113550Y0018956D01*
X0113781Y0019032D02*
X0114242Y0019032D01*
X0113977Y0019069D02*
X0113799Y0019069D01*
X0113817Y0019107D02*
X0113956Y0019107D01*
X0113308Y0018691D02*
X0113220Y0018691D01*
X0113159Y0018350D02*
X0113146Y0018350D01*
X0117473Y0019486D02*
X0117857Y0019486D01*
X0117851Y0019524D02*
X0117506Y0019524D01*
X0117538Y0019562D02*
X0117845Y0019562D01*
X0117839Y0019600D02*
X0117571Y0019600D01*
X0117604Y0019638D02*
X0117833Y0019638D01*
X0117826Y0019676D02*
X0117636Y0019676D01*
X0117669Y0019713D02*
X0117820Y0019713D01*
X0117814Y0019751D02*
X0117701Y0019751D01*
X0117734Y0019789D02*
X0117808Y0019789D01*
X0117802Y0019827D02*
X0117767Y0019827D01*
X0116089Y0015054D02*
X0115940Y0015054D01*
X0114725Y0014448D02*
X0114539Y0014448D01*
X0114594Y0014410D02*
X0114700Y0014410D01*
X0114674Y0014372D02*
X0114650Y0014372D01*
X0114205Y0005198D02*
X0114199Y0005193D01*
X0115953Y0005193D01*
X0115953Y0004868D01*
X0114529Y0004868D01*
X0114529Y0004060D01*
X0115871Y0004060D01*
X0115871Y0003735D01*
X0114529Y0003735D01*
X0114529Y0002822D01*
X0116009Y0002822D01*
X0116009Y0002514D01*
X0114205Y0002514D01*
X0114205Y0005198D01*
X0114205Y0005167D02*
X0115953Y0005167D01*
X0115953Y0005129D02*
X0114205Y0005129D01*
X0114205Y0005091D02*
X0115953Y0005091D01*
X0115953Y0005053D02*
X0114205Y0005053D01*
X0114205Y0005015D02*
X0115953Y0005015D01*
X0115953Y0004978D02*
X0114205Y0004978D01*
X0114205Y0004940D02*
X0115953Y0004940D01*
X0115953Y0004902D02*
X0114205Y0004902D01*
X0114205Y0004864D02*
X0114529Y0004864D01*
X0114529Y0004826D02*
X0114205Y0004826D01*
X0114205Y0004788D02*
X0114529Y0004788D01*
X0114529Y0004750D02*
X0114205Y0004750D01*
X0114205Y0004712D02*
X0114529Y0004712D01*
X0114529Y0004674D02*
X0114205Y0004674D01*
X0114205Y0004637D02*
X0114529Y0004637D01*
X0114529Y0004599D02*
X0114205Y0004599D01*
X0114205Y0004561D02*
X0114529Y0004561D01*
X0114529Y0004523D02*
X0114205Y0004523D01*
X0114205Y0004485D02*
X0114529Y0004485D01*
X0114529Y0004447D02*
X0114205Y0004447D01*
X0114205Y0004409D02*
X0114529Y0004409D01*
X0114529Y0004371D02*
X0114205Y0004371D01*
X0114205Y0004334D02*
X0114529Y0004334D01*
X0114529Y0004296D02*
X0114205Y0004296D01*
X0114205Y0004258D02*
X0114529Y0004258D01*
X0114529Y0004220D02*
X0114205Y0004220D01*
X0114205Y0004182D02*
X0114529Y0004182D01*
X0114529Y0004144D02*
X0114205Y0004144D01*
X0114205Y0004106D02*
X0114529Y0004106D01*
X0114529Y0004068D02*
X0114205Y0004068D01*
X0114205Y0004031D02*
X0115871Y0004031D01*
X0115871Y0003993D02*
X0114205Y0003993D01*
X0114205Y0003955D02*
X0115871Y0003955D01*
X0115871Y0003917D02*
X0114205Y0003917D01*
X0114205Y0003879D02*
X0115871Y0003879D01*
X0115871Y0003841D02*
X0114205Y0003841D01*
X0114205Y0003803D02*
X0115871Y0003803D01*
X0115871Y0003765D02*
X0114205Y0003765D01*
X0114205Y0003727D02*
X0114529Y0003727D01*
X0114529Y0003690D02*
X0114205Y0003690D01*
X0114205Y0003652D02*
X0114529Y0003652D01*
X0114529Y0003614D02*
X0114205Y0003614D01*
X0114205Y0003576D02*
X0114529Y0003576D01*
X0114529Y0003538D02*
X0114205Y0003538D01*
X0114205Y0003500D02*
X0114529Y0003500D01*
X0114529Y0003462D02*
X0114205Y0003462D01*
X0114205Y0003424D02*
X0114529Y0003424D01*
X0114529Y0003387D02*
X0114205Y0003387D01*
X0114205Y0003349D02*
X0114529Y0003349D01*
X0114529Y0003311D02*
X0114205Y0003311D01*
X0114205Y0003273D02*
X0114529Y0003273D01*
X0114529Y0003235D02*
X0114205Y0003235D01*
X0114205Y0003197D02*
X0114529Y0003197D01*
X0114529Y0003159D02*
X0114205Y0003159D01*
X0114205Y0003121D02*
X0114529Y0003121D01*
X0114529Y0003083D02*
X0114205Y0003083D01*
X0114205Y0003046D02*
X0114529Y0003046D01*
X0114529Y0003008D02*
X0114205Y0003008D01*
X0114205Y0002970D02*
X0114529Y0002970D01*
X0114529Y0002932D02*
X0114205Y0002932D01*
X0114205Y0002894D02*
X0114529Y0002894D01*
X0114529Y0002856D02*
X0114205Y0002856D01*
X0114205Y0002818D02*
X0116009Y0002818D01*
X0116009Y0002780D02*
X0114205Y0002780D01*
X0114205Y0002743D02*
X0116009Y0002743D01*
X0116009Y0002705D02*
X0114205Y0002705D01*
X0114205Y0002667D02*
X0116009Y0002667D01*
X0116009Y0002629D02*
X0114205Y0002629D01*
X0114205Y0002591D02*
X0116009Y0002591D01*
X0116009Y0002553D02*
X0114205Y0002553D01*
X0114205Y0002515D02*
X0116009Y0002515D01*
X0116621Y0002970D02*
X0117016Y0002970D01*
X0116986Y0003008D02*
X0116593Y0003008D01*
X0116565Y0003046D02*
X0116957Y0003046D01*
X0116927Y0003083D02*
X0116538Y0003083D01*
X0116510Y0003121D02*
X0116897Y0003121D01*
X0116868Y0003159D02*
X0116486Y0003159D01*
X0116487Y0003152D02*
X0116866Y0002635D01*
X0117505Y0002465D01*
X0118137Y0002690D01*
X0118500Y0003361D01*
X0118192Y0003444D01*
X0117934Y0002943D01*
X0117483Y0002773D01*
X0117076Y0002894D01*
X0116778Y0003273D01*
X0116696Y0003873D01*
X0116778Y0004390D01*
X0117037Y0004786D01*
X0117505Y0004940D01*
X0118179Y0004940D01*
X0118156Y0004978D02*
X0116837Y0004978D01*
X0116869Y0005015D02*
X0118133Y0005015D01*
X0118126Y0005028D02*
X0117510Y0005237D01*
X0117505Y0005231D01*
X0116922Y0005077D01*
X0116509Y0004593D01*
X0116372Y0003873D01*
X0116487Y0003152D01*
X0116480Y0003197D02*
X0116838Y0003197D01*
X0116808Y0003235D02*
X0116474Y0003235D01*
X0116468Y0003273D02*
X0116779Y0003273D01*
X0116773Y0003311D02*
X0116462Y0003311D01*
X0116456Y0003349D02*
X0116768Y0003349D01*
X0116763Y0003387D02*
X0116449Y0003387D01*
X0116443Y0003424D02*
X0116758Y0003424D01*
X0116752Y0003462D02*
X0116437Y0003462D01*
X0116431Y0003500D02*
X0116747Y0003500D01*
X0116742Y0003538D02*
X0116425Y0003538D01*
X0116419Y0003576D02*
X0116737Y0003576D01*
X0116732Y0003614D02*
X0116413Y0003614D01*
X0116407Y0003652D02*
X0116726Y0003652D01*
X0116721Y0003690D02*
X0116401Y0003690D01*
X0116395Y0003727D02*
X0116716Y0003727D01*
X0116711Y0003765D02*
X0116389Y0003765D01*
X0116383Y0003803D02*
X0116706Y0003803D01*
X0116700Y0003841D02*
X0116377Y0003841D01*
X0116373Y0003879D02*
X0116697Y0003879D01*
X0116703Y0003917D02*
X0116380Y0003917D01*
X0116387Y0003955D02*
X0116709Y0003955D01*
X0116715Y0003993D02*
X0116394Y0003993D01*
X0116402Y0004031D02*
X0116721Y0004031D01*
X0116727Y0004068D02*
X0116409Y0004068D01*
X0116416Y0004106D02*
X0116733Y0004106D01*
X0116739Y0004144D02*
X0116423Y0004144D01*
X0116431Y0004182D02*
X0116745Y0004182D01*
X0116751Y0004220D02*
X0116438Y0004220D01*
X0116445Y0004258D02*
X0116757Y0004258D01*
X0116763Y0004296D02*
X0116452Y0004296D01*
X0116459Y0004334D02*
X0116770Y0004334D01*
X0116776Y0004371D02*
X0116467Y0004371D01*
X0116474Y0004409D02*
X0116791Y0004409D01*
X0116816Y0004447D02*
X0116481Y0004447D01*
X0116488Y0004485D02*
X0116841Y0004485D01*
X0116865Y0004523D02*
X0116496Y0004523D01*
X0116503Y0004561D02*
X0116890Y0004561D01*
X0116915Y0004599D02*
X0116514Y0004599D01*
X0116546Y0004637D02*
X0116940Y0004637D01*
X0116964Y0004674D02*
X0116578Y0004674D01*
X0116611Y0004712D02*
X0116989Y0004712D01*
X0117014Y0004750D02*
X0116643Y0004750D01*
X0116675Y0004788D02*
X0117044Y0004788D01*
X0117159Y0004826D02*
X0116707Y0004826D01*
X0116740Y0004864D02*
X0117274Y0004864D01*
X0117389Y0004902D02*
X0116772Y0004902D01*
X0116804Y0004940D02*
X0117504Y0004940D01*
X0117505Y0004940D02*
X0117917Y0004802D01*
X0118159Y0004373D01*
X0118467Y0004461D01*
X0118126Y0005028D01*
X0118051Y0005053D02*
X0116901Y0005053D01*
X0116974Y0005091D02*
X0117939Y0005091D01*
X0117827Y0005129D02*
X0117118Y0005129D01*
X0117261Y0005167D02*
X0117716Y0005167D01*
X0117604Y0005205D02*
X0117404Y0005205D01*
X0117619Y0004902D02*
X0118202Y0004902D01*
X0118225Y0004864D02*
X0117732Y0004864D01*
X0117846Y0004826D02*
X0118247Y0004826D01*
X0118270Y0004788D02*
X0117925Y0004788D01*
X0117946Y0004750D02*
X0118293Y0004750D01*
X0118316Y0004712D02*
X0117968Y0004712D01*
X0117989Y0004674D02*
X0118339Y0004674D01*
X0118361Y0004637D02*
X0118010Y0004637D01*
X0118032Y0004599D02*
X0118384Y0004599D01*
X0118407Y0004561D02*
X0118053Y0004561D01*
X0118075Y0004523D02*
X0118430Y0004523D01*
X0118453Y0004485D02*
X0118096Y0004485D01*
X0118117Y0004447D02*
X0118418Y0004447D01*
X0118285Y0004409D02*
X0118139Y0004409D01*
X0118182Y0003424D02*
X0118264Y0003424D01*
X0118162Y0003387D02*
X0118406Y0003387D01*
X0118493Y0003349D02*
X0118143Y0003349D01*
X0118123Y0003311D02*
X0118473Y0003311D01*
X0118452Y0003273D02*
X0118104Y0003273D01*
X0118084Y0003235D02*
X0118432Y0003235D01*
X0118411Y0003197D02*
X0118065Y0003197D01*
X0118045Y0003159D02*
X0118391Y0003159D01*
X0118370Y0003121D02*
X0118026Y0003121D01*
X0118006Y0003083D02*
X0118350Y0003083D01*
X0118329Y0003046D02*
X0117986Y0003046D01*
X0117967Y0003008D02*
X0118309Y0003008D01*
X0118288Y0002970D02*
X0117947Y0002970D01*
X0117904Y0002932D02*
X0118268Y0002932D01*
X0118247Y0002894D02*
X0117803Y0002894D01*
X0117703Y0002856D02*
X0118227Y0002856D01*
X0118206Y0002818D02*
X0117603Y0002818D01*
X0117503Y0002780D02*
X0118186Y0002780D01*
X0118165Y0002743D02*
X0116788Y0002743D01*
X0116760Y0002780D02*
X0117457Y0002780D01*
X0117329Y0002818D02*
X0116732Y0002818D01*
X0116704Y0002856D02*
X0117202Y0002856D01*
X0117075Y0002894D02*
X0116677Y0002894D01*
X0116649Y0002932D02*
X0117046Y0002932D01*
X0116816Y0002705D02*
X0118145Y0002705D01*
X0118071Y0002667D02*
X0116843Y0002667D01*
X0116890Y0002629D02*
X0117965Y0002629D01*
X0117859Y0002591D02*
X0117032Y0002591D01*
X0117174Y0002553D02*
X0117753Y0002553D01*
X0117646Y0002515D02*
X0117315Y0002515D01*
X0117457Y0002477D02*
X0117540Y0002477D01*
X0113858Y0004874D02*
X0113049Y0004874D01*
X0113049Y0002520D01*
X0112741Y0002520D01*
X0112741Y0004874D01*
X0111933Y0004874D01*
X0111933Y0005198D01*
X0113858Y0005198D01*
X0113858Y0004874D01*
X0113858Y0004902D02*
X0111933Y0004902D01*
X0111933Y0004940D02*
X0113858Y0004940D01*
X0113858Y0004978D02*
X0111933Y0004978D01*
X0111933Y0005015D02*
X0113858Y0005015D01*
X0113858Y0005053D02*
X0111933Y0005053D01*
X0111933Y0005091D02*
X0113858Y0005091D01*
X0113858Y0005129D02*
X0111933Y0005129D01*
X0111933Y0005167D02*
X0113858Y0005167D01*
X0113049Y0004864D02*
X0112741Y0004864D01*
X0112741Y0004826D02*
X0113049Y0004826D01*
X0113049Y0004788D02*
X0112741Y0004788D01*
X0112741Y0004750D02*
X0113049Y0004750D01*
X0113049Y0004712D02*
X0112741Y0004712D01*
X0112741Y0004674D02*
X0113049Y0004674D01*
X0113049Y0004637D02*
X0112741Y0004637D01*
X0112741Y0004599D02*
X0113049Y0004599D01*
X0113049Y0004561D02*
X0112741Y0004561D01*
X0112741Y0004523D02*
X0113049Y0004523D01*
X0113049Y0004485D02*
X0112741Y0004485D01*
X0112741Y0004447D02*
X0113049Y0004447D01*
X0113049Y0004409D02*
X0112741Y0004409D01*
X0112741Y0004371D02*
X0113049Y0004371D01*
X0113049Y0004334D02*
X0112741Y0004334D01*
X0112741Y0004296D02*
X0113049Y0004296D01*
X0113049Y0004258D02*
X0112741Y0004258D01*
X0112741Y0004220D02*
X0113049Y0004220D01*
X0113049Y0004182D02*
X0112741Y0004182D01*
X0112741Y0004144D02*
X0113049Y0004144D01*
X0113049Y0004106D02*
X0112741Y0004106D01*
X0112741Y0004068D02*
X0113049Y0004068D01*
X0113049Y0004031D02*
X0112741Y0004031D01*
X0112741Y0003993D02*
X0113049Y0003993D01*
X0113049Y0003955D02*
X0112741Y0003955D01*
X0112741Y0003917D02*
X0113049Y0003917D01*
X0113049Y0003879D02*
X0112741Y0003879D01*
X0112741Y0003841D02*
X0113049Y0003841D01*
X0113049Y0003803D02*
X0112741Y0003803D01*
X0112741Y0003765D02*
X0113049Y0003765D01*
X0113049Y0003727D02*
X0112741Y0003727D01*
X0112741Y0003690D02*
X0113049Y0003690D01*
X0113049Y0003652D02*
X0112741Y0003652D01*
X0112741Y0003614D02*
X0113049Y0003614D01*
X0113049Y0003576D02*
X0112741Y0003576D01*
X0112741Y0003538D02*
X0113049Y0003538D01*
X0113049Y0003500D02*
X0112741Y0003500D01*
X0112741Y0003462D02*
X0113049Y0003462D01*
X0113049Y0003424D02*
X0112741Y0003424D01*
X0112741Y0003387D02*
X0113049Y0003387D01*
X0113049Y0003349D02*
X0112741Y0003349D01*
X0112741Y0003311D02*
X0113049Y0003311D01*
X0113049Y0003273D02*
X0112741Y0003273D01*
X0112741Y0003235D02*
X0113049Y0003235D01*
X0113049Y0003197D02*
X0112741Y0003197D01*
X0112741Y0003159D02*
X0113049Y0003159D01*
X0113049Y0003121D02*
X0112741Y0003121D01*
X0112741Y0003083D02*
X0113049Y0003083D01*
X0113049Y0003046D02*
X0112741Y0003046D01*
X0112741Y0003008D02*
X0113049Y0003008D01*
X0113049Y0002970D02*
X0112741Y0002970D01*
X0112741Y0002932D02*
X0113049Y0002932D01*
X0113049Y0002894D02*
X0112741Y0002894D01*
X0112741Y0002856D02*
X0113049Y0002856D01*
X0113049Y0002818D02*
X0112741Y0002818D01*
X0112741Y0002780D02*
X0113049Y0002780D01*
X0113049Y0002743D02*
X0112741Y0002743D01*
X0112741Y0002705D02*
X0113049Y0002705D01*
X0113049Y0002667D02*
X0112741Y0002667D01*
X0112741Y0002629D02*
X0113049Y0002629D01*
X0113049Y0002591D02*
X0112741Y0002591D01*
X0112741Y0002553D02*
X0113049Y0002553D01*
X0111867Y0002514D02*
X0111851Y0002547D01*
X0111851Y0002514D01*
X0111867Y0002514D01*
X0111867Y0002515D02*
X0111851Y0002515D01*
X0111851Y0002520D02*
X0111851Y0002553D01*
X0111042Y0003895D01*
X0111801Y0005204D01*
X0110992Y0005204D01*
X0110563Y0004379D01*
X0110134Y0005204D01*
X0109309Y0005204D01*
X0110085Y0003917D01*
X0111055Y0003917D01*
X0111051Y0003879D02*
X0110062Y0003879D01*
X0110085Y0003917D02*
X0109260Y0002558D01*
X0109255Y0002553D01*
X0110098Y0002553D01*
X0110080Y0002520D02*
X0110541Y0003378D01*
X0111026Y0002520D01*
X0111851Y0002520D01*
X0111850Y0002553D02*
X0111007Y0002553D01*
X0110985Y0002591D02*
X0111827Y0002591D01*
X0111805Y0002629D02*
X0110964Y0002629D01*
X0110943Y0002667D02*
X0111782Y0002667D01*
X0111759Y0002705D02*
X0110921Y0002705D01*
X0110900Y0002743D02*
X0111736Y0002743D01*
X0111713Y0002780D02*
X0110878Y0002780D01*
X0110857Y0002818D02*
X0111690Y0002818D01*
X0111668Y0002856D02*
X0110836Y0002856D01*
X0110814Y0002894D02*
X0111645Y0002894D01*
X0111622Y0002932D02*
X0110793Y0002932D01*
X0110772Y0002970D02*
X0111599Y0002970D01*
X0111576Y0003008D02*
X0110750Y0003008D01*
X0110729Y0003046D02*
X0111554Y0003046D01*
X0111531Y0003083D02*
X0110707Y0003083D01*
X0110686Y0003121D02*
X0111508Y0003121D01*
X0111485Y0003159D02*
X0110665Y0003159D01*
X0110643Y0003197D02*
X0111462Y0003197D01*
X0111439Y0003235D02*
X0110622Y0003235D01*
X0110601Y0003273D02*
X0111417Y0003273D01*
X0111394Y0003311D02*
X0110579Y0003311D01*
X0110558Y0003349D02*
X0111371Y0003349D01*
X0111348Y0003387D02*
X0109763Y0003387D01*
X0109786Y0003424D02*
X0111325Y0003424D01*
X0111303Y0003462D02*
X0109809Y0003462D01*
X0109832Y0003500D02*
X0111280Y0003500D01*
X0111257Y0003538D02*
X0109855Y0003538D01*
X0109878Y0003576D02*
X0111234Y0003576D01*
X0111211Y0003614D02*
X0109901Y0003614D01*
X0109924Y0003652D02*
X0111188Y0003652D01*
X0111166Y0003690D02*
X0109947Y0003690D01*
X0109970Y0003727D02*
X0111143Y0003727D01*
X0111120Y0003765D02*
X0109993Y0003765D01*
X0110016Y0003803D02*
X0111097Y0003803D01*
X0111074Y0003841D02*
X0110039Y0003841D01*
X0110062Y0003955D02*
X0111077Y0003955D01*
X0111099Y0003993D02*
X0110039Y0003993D01*
X0110016Y0004031D02*
X0111121Y0004031D01*
X0111143Y0004068D02*
X0109994Y0004068D01*
X0109971Y0004106D02*
X0111165Y0004106D01*
X0111187Y0004144D02*
X0109948Y0004144D01*
X0109925Y0004182D02*
X0111209Y0004182D01*
X0111231Y0004220D02*
X0109902Y0004220D01*
X0109879Y0004258D02*
X0111253Y0004258D01*
X0111274Y0004296D02*
X0109857Y0004296D01*
X0109834Y0004334D02*
X0111296Y0004334D01*
X0111318Y0004371D02*
X0109811Y0004371D01*
X0109788Y0004409D02*
X0110548Y0004409D01*
X0110579Y0004409D02*
X0111340Y0004409D01*
X0111362Y0004447D02*
X0110599Y0004447D01*
X0110619Y0004485D02*
X0111384Y0004485D01*
X0111406Y0004523D02*
X0110639Y0004523D01*
X0110658Y0004561D02*
X0111428Y0004561D01*
X0111450Y0004599D02*
X0110678Y0004599D01*
X0110698Y0004637D02*
X0111472Y0004637D01*
X0111494Y0004674D02*
X0110717Y0004674D01*
X0110737Y0004712D02*
X0111516Y0004712D01*
X0111538Y0004750D02*
X0110757Y0004750D01*
X0110776Y0004788D02*
X0111560Y0004788D01*
X0111582Y0004826D02*
X0110796Y0004826D01*
X0110816Y0004864D02*
X0111604Y0004864D01*
X0111626Y0004902D02*
X0110836Y0004902D01*
X0110855Y0004940D02*
X0111648Y0004940D01*
X0111670Y0004978D02*
X0110875Y0004978D01*
X0110895Y0005015D02*
X0111692Y0005015D01*
X0111714Y0005053D02*
X0110914Y0005053D01*
X0110934Y0005091D02*
X0111736Y0005091D01*
X0111758Y0005129D02*
X0110954Y0005129D01*
X0110973Y0005167D02*
X0111780Y0005167D01*
X0110508Y0004485D02*
X0109743Y0004485D01*
X0109765Y0004447D02*
X0110528Y0004447D01*
X0110488Y0004523D02*
X0109720Y0004523D01*
X0109697Y0004561D02*
X0110469Y0004561D01*
X0110449Y0004599D02*
X0109674Y0004599D01*
X0109651Y0004637D02*
X0110429Y0004637D01*
X0110410Y0004674D02*
X0109628Y0004674D01*
X0109606Y0004712D02*
X0110390Y0004712D01*
X0110370Y0004750D02*
X0109583Y0004750D01*
X0109560Y0004788D02*
X0110351Y0004788D01*
X0110331Y0004826D02*
X0109537Y0004826D01*
X0109514Y0004864D02*
X0110311Y0004864D01*
X0110291Y0004902D02*
X0109491Y0004902D01*
X0109469Y0004940D02*
X0110272Y0004940D01*
X0110252Y0004978D02*
X0109446Y0004978D01*
X0109423Y0005015D02*
X0110232Y0005015D01*
X0110213Y0005053D02*
X0109400Y0005053D01*
X0109377Y0005091D02*
X0110193Y0005091D01*
X0110173Y0005129D02*
X0109354Y0005129D01*
X0109332Y0005167D02*
X0110154Y0005167D01*
X0109116Y0004523D02*
X0108164Y0004523D01*
X0108116Y0004544D02*
X0108358Y0004439D01*
X0108495Y0003889D01*
X0108358Y0003251D01*
X0108116Y0003147D01*
X0108116Y0002492D01*
X0108683Y0002630D01*
X0109095Y0003092D01*
X0109233Y0003867D01*
X0109166Y0004439D01*
X0108908Y0004868D01*
X0108512Y0005143D01*
X0108116Y0005215D01*
X0107978Y0005231D01*
X0107462Y0005143D01*
X0107066Y0004868D01*
X0106807Y0004439D01*
X0106719Y0003856D01*
X0106890Y0003064D01*
X0107319Y0002619D01*
X0108006Y0002465D01*
X0108110Y0002498D01*
X0108116Y0002498D01*
X0108116Y0003152D01*
X0107978Y0003086D01*
X0107616Y0003273D01*
X0106845Y0003273D01*
X0106836Y0003311D02*
X0107606Y0003311D01*
X0107597Y0003349D02*
X0106828Y0003349D01*
X0106820Y0003387D02*
X0107588Y0003387D01*
X0107579Y0003424D02*
X0106812Y0003424D01*
X0106804Y0003462D02*
X0107570Y0003462D01*
X0107560Y0003500D02*
X0106796Y0003500D01*
X0106787Y0003538D02*
X0107551Y0003538D01*
X0107542Y0003576D02*
X0106779Y0003576D01*
X0106771Y0003614D02*
X0107533Y0003614D01*
X0107524Y0003652D02*
X0106763Y0003652D01*
X0106755Y0003690D02*
X0107514Y0003690D01*
X0107505Y0003727D02*
X0106747Y0003727D01*
X0106739Y0003765D02*
X0107496Y0003765D01*
X0107487Y0003803D02*
X0106730Y0003803D01*
X0106722Y0003841D02*
X0107478Y0003841D01*
X0107478Y0003840D02*
X0107616Y0004439D01*
X0107978Y0004610D01*
X0108116Y0004544D01*
X0108116Y0005215D01*
X0108116Y0004544D01*
X0108116Y0004561D02*
X0109093Y0004561D01*
X0109070Y0004599D02*
X0108116Y0004599D01*
X0108002Y0004599D01*
X0107955Y0004599D02*
X0106903Y0004599D01*
X0106926Y0004637D02*
X0108116Y0004637D01*
X0109048Y0004637D01*
X0109025Y0004674D02*
X0108116Y0004674D01*
X0106949Y0004674D01*
X0106972Y0004712D02*
X0108116Y0004712D01*
X0109002Y0004712D01*
X0108979Y0004750D02*
X0108116Y0004750D01*
X0106994Y0004750D01*
X0107017Y0004788D02*
X0108116Y0004788D01*
X0108956Y0004788D01*
X0108933Y0004826D02*
X0108116Y0004826D01*
X0107040Y0004826D01*
X0107063Y0004864D02*
X0108116Y0004864D01*
X0108911Y0004864D01*
X0108860Y0004902D02*
X0108116Y0004902D01*
X0107114Y0004902D01*
X0107168Y0004940D02*
X0108116Y0004940D01*
X0108805Y0004940D01*
X0108751Y0004978D02*
X0108116Y0004978D01*
X0107223Y0004978D01*
X0107277Y0005015D02*
X0108116Y0005015D01*
X0108696Y0005015D01*
X0108641Y0005053D02*
X0108116Y0005053D01*
X0107332Y0005053D01*
X0107386Y0005091D02*
X0108116Y0005091D01*
X0108587Y0005091D01*
X0108532Y0005129D02*
X0108116Y0005129D01*
X0107441Y0005129D01*
X0107600Y0005167D02*
X0108116Y0005167D01*
X0108380Y0005167D01*
X0108171Y0005205D02*
X0108116Y0005205D01*
X0107823Y0005205D01*
X0107874Y0004561D02*
X0106880Y0004561D01*
X0106857Y0004523D02*
X0107794Y0004523D01*
X0107713Y0004485D02*
X0106835Y0004485D01*
X0106812Y0004447D02*
X0107632Y0004447D01*
X0107609Y0004409D02*
X0106802Y0004409D01*
X0106797Y0004371D02*
X0107600Y0004371D01*
X0107591Y0004334D02*
X0106791Y0004334D01*
X0106785Y0004296D02*
X0107583Y0004296D01*
X0107574Y0004258D02*
X0106780Y0004258D01*
X0106774Y0004220D02*
X0107565Y0004220D01*
X0107556Y0004182D02*
X0106768Y0004182D01*
X0106762Y0004144D02*
X0107548Y0004144D01*
X0107539Y0004106D02*
X0106757Y0004106D01*
X0106751Y0004068D02*
X0107530Y0004068D01*
X0107522Y0004031D02*
X0106745Y0004031D01*
X0106740Y0003993D02*
X0107513Y0003993D01*
X0107504Y0003955D02*
X0106734Y0003955D01*
X0106728Y0003917D02*
X0107496Y0003917D01*
X0107487Y0003879D02*
X0106722Y0003879D01*
X0106312Y0003702D02*
X0105933Y0003944D01*
X0106191Y0004115D01*
X0106328Y0004527D01*
X0106141Y0005011D01*
X0105608Y0005198D01*
X0105162Y0005198D01*
X0105162Y0004648D01*
X0104953Y0004648D01*
X0104953Y0004148D01*
X0105162Y0004148D01*
X0105162Y0003631D01*
X0104953Y0003631D01*
X0104953Y0003081D01*
X0105162Y0003081D01*
X0105162Y0002514D01*
X0104200Y0002514D01*
X0104200Y0005198D01*
X0105162Y0005198D01*
X0105162Y0004648D01*
X0105284Y0004648D01*
X0105526Y0004582D01*
X0105591Y0004412D01*
X0105526Y0004203D01*
X0105284Y0004153D01*
X0105162Y0004153D01*
X0105162Y0003636D01*
X0105333Y0003636D01*
X0105608Y0003570D01*
X0105696Y0003383D01*
X0105608Y0003174D01*
X0105333Y0003086D01*
X0105162Y0003086D01*
X0105162Y0002520D01*
X0105487Y0002520D01*
X0105828Y0002553D01*
X0106103Y0002641D01*
X0106345Y0002899D01*
X0106433Y0003279D01*
X0106312Y0003702D01*
X0106316Y0003690D02*
X0105162Y0003690D01*
X0104200Y0003690D01*
X0104200Y0003727D02*
X0105162Y0003727D01*
X0106273Y0003727D01*
X0106213Y0003765D02*
X0105162Y0003765D01*
X0104200Y0003765D01*
X0104200Y0003803D02*
X0105162Y0003803D01*
X0106154Y0003803D01*
X0106094Y0003841D02*
X0105162Y0003841D01*
X0104200Y0003841D01*
X0104200Y0003879D02*
X0105162Y0003879D01*
X0106035Y0003879D01*
X0105975Y0003917D02*
X0105162Y0003917D01*
X0104200Y0003917D01*
X0104200Y0003955D02*
X0105162Y0003955D01*
X0105948Y0003955D01*
X0106006Y0003993D02*
X0105162Y0003993D01*
X0104200Y0003993D01*
X0104200Y0004031D02*
X0105162Y0004031D01*
X0106063Y0004031D01*
X0106121Y0004068D02*
X0105162Y0004068D01*
X0104200Y0004068D01*
X0104200Y0004106D02*
X0105162Y0004106D01*
X0106178Y0004106D01*
X0106201Y0004144D02*
X0105162Y0004144D01*
X0104200Y0004144D01*
X0104200Y0004182D02*
X0104953Y0004182D01*
X0104953Y0004220D02*
X0104200Y0004220D01*
X0104200Y0004258D02*
X0104953Y0004258D01*
X0104953Y0004296D02*
X0104200Y0004296D01*
X0104200Y0004334D02*
X0104953Y0004334D01*
X0104953Y0004371D02*
X0104200Y0004371D01*
X0104200Y0004409D02*
X0104953Y0004409D01*
X0104953Y0004447D02*
X0104200Y0004447D01*
X0104200Y0004485D02*
X0104953Y0004485D01*
X0104953Y0004523D02*
X0104200Y0004523D01*
X0104200Y0004561D02*
X0104953Y0004561D01*
X0104953Y0004599D02*
X0104200Y0004599D01*
X0104200Y0004637D02*
X0104953Y0004637D01*
X0105162Y0004674D02*
X0104200Y0004674D01*
X0104200Y0004712D02*
X0105162Y0004712D01*
X0106257Y0004712D01*
X0106272Y0004674D02*
X0105162Y0004674D01*
X0105162Y0004750D02*
X0104200Y0004750D01*
X0104200Y0004788D02*
X0105162Y0004788D01*
X0106228Y0004788D01*
X0106242Y0004750D02*
X0105162Y0004750D01*
X0105162Y0004826D02*
X0104200Y0004826D01*
X0104200Y0004864D02*
X0105162Y0004864D01*
X0106198Y0004864D01*
X0106184Y0004902D02*
X0105162Y0004902D01*
X0104200Y0004902D01*
X0104200Y0004940D02*
X0105162Y0004940D01*
X0106169Y0004940D01*
X0106155Y0004978D02*
X0105162Y0004978D01*
X0104200Y0004978D01*
X0104200Y0005015D02*
X0105162Y0005015D01*
X0106129Y0005015D01*
X0106021Y0005053D02*
X0105162Y0005053D01*
X0104200Y0005053D01*
X0104200Y0005091D02*
X0105162Y0005091D01*
X0105913Y0005091D01*
X0105805Y0005129D02*
X0105162Y0005129D01*
X0104200Y0005129D01*
X0104200Y0005167D02*
X0105162Y0005167D01*
X0105697Y0005167D01*
X0105465Y0004599D02*
X0106301Y0004599D01*
X0106286Y0004637D02*
X0105326Y0004637D01*
X0105534Y0004561D02*
X0106316Y0004561D01*
X0106327Y0004523D02*
X0105548Y0004523D01*
X0105563Y0004485D02*
X0106314Y0004485D01*
X0106302Y0004447D02*
X0105578Y0004447D01*
X0105591Y0004409D02*
X0106289Y0004409D01*
X0106277Y0004371D02*
X0105579Y0004371D01*
X0105567Y0004334D02*
X0106264Y0004334D01*
X0106251Y0004296D02*
X0105555Y0004296D01*
X0105543Y0004258D02*
X0106239Y0004258D01*
X0106226Y0004220D02*
X0105531Y0004220D01*
X0105425Y0004182D02*
X0106213Y0004182D01*
X0106326Y0003652D02*
X0105162Y0003652D01*
X0104200Y0003652D01*
X0104200Y0003614D02*
X0104953Y0003614D01*
X0104953Y0003576D02*
X0104200Y0003576D01*
X0104200Y0003538D02*
X0104953Y0003538D01*
X0104953Y0003500D02*
X0104200Y0003500D01*
X0104200Y0003462D02*
X0104953Y0003462D01*
X0104953Y0003424D02*
X0104200Y0003424D01*
X0104200Y0003387D02*
X0104953Y0003387D01*
X0104953Y0003349D02*
X0104200Y0003349D01*
X0104200Y0003311D02*
X0104953Y0003311D01*
X0104953Y0003273D02*
X0104200Y0003273D01*
X0104200Y0003235D02*
X0104953Y0003235D01*
X0104953Y0003197D02*
X0104200Y0003197D01*
X0104200Y0003159D02*
X0104953Y0003159D01*
X0104953Y0003121D02*
X0104200Y0003121D01*
X0104200Y0003083D02*
X0104953Y0003083D01*
X0105162Y0003083D02*
X0106388Y0003083D01*
X0106379Y0003046D02*
X0105162Y0003046D01*
X0104200Y0003046D01*
X0104200Y0003008D02*
X0105162Y0003008D01*
X0106370Y0003008D01*
X0106361Y0002970D02*
X0105162Y0002970D01*
X0104200Y0002970D01*
X0104200Y0002932D02*
X0105162Y0002932D01*
X0106353Y0002932D01*
X0106340Y0002894D02*
X0105162Y0002894D01*
X0104200Y0002894D01*
X0104200Y0002856D02*
X0105162Y0002856D01*
X0106305Y0002856D01*
X0106269Y0002818D02*
X0105162Y0002818D01*
X0104200Y0002818D01*
X0104200Y0002780D02*
X0105162Y0002780D01*
X0106234Y0002780D01*
X0106198Y0002743D02*
X0105162Y0002743D01*
X0104200Y0002743D01*
X0104200Y0002705D02*
X0105162Y0002705D01*
X0106163Y0002705D01*
X0106127Y0002667D02*
X0105162Y0002667D01*
X0104200Y0002667D01*
X0104200Y0002629D02*
X0105162Y0002629D01*
X0106066Y0002629D01*
X0105948Y0002591D02*
X0105162Y0002591D01*
X0104200Y0002591D01*
X0104200Y0002553D02*
X0105162Y0002553D01*
X0105829Y0002553D01*
X0105561Y0003159D02*
X0106405Y0003159D01*
X0106397Y0003121D02*
X0105443Y0003121D01*
X0105618Y0003197D02*
X0106414Y0003197D01*
X0106423Y0003235D02*
X0105634Y0003235D01*
X0105650Y0003273D02*
X0106432Y0003273D01*
X0106424Y0003311D02*
X0105666Y0003311D01*
X0105681Y0003349D02*
X0106413Y0003349D01*
X0106402Y0003387D02*
X0105694Y0003387D01*
X0105677Y0003424D02*
X0106391Y0003424D01*
X0106381Y0003462D02*
X0105659Y0003462D01*
X0105641Y0003500D02*
X0106370Y0003500D01*
X0106359Y0003538D02*
X0105623Y0003538D01*
X0105584Y0003576D02*
X0106348Y0003576D01*
X0106337Y0003614D02*
X0105426Y0003614D01*
X0106853Y0003235D02*
X0107690Y0003235D01*
X0107763Y0003197D02*
X0106861Y0003197D01*
X0106869Y0003159D02*
X0107837Y0003159D01*
X0107910Y0003121D02*
X0106877Y0003121D01*
X0106885Y0003083D02*
X0108116Y0003083D01*
X0109088Y0003083D01*
X0109100Y0003121D02*
X0108116Y0003121D01*
X0108052Y0003121D01*
X0108116Y0003046D02*
X0109054Y0003046D01*
X0109020Y0003008D02*
X0108116Y0003008D01*
X0106944Y0003008D01*
X0106908Y0003046D02*
X0108116Y0003046D01*
X0108116Y0002970D02*
X0108986Y0002970D01*
X0108952Y0002932D02*
X0108116Y0002932D01*
X0107017Y0002932D01*
X0107053Y0002894D02*
X0108116Y0002894D01*
X0108918Y0002894D01*
X0108885Y0002856D02*
X0108116Y0002856D01*
X0107090Y0002856D01*
X0107126Y0002818D02*
X0108116Y0002818D01*
X0108851Y0002818D01*
X0108817Y0002780D02*
X0108116Y0002780D01*
X0107163Y0002780D01*
X0107199Y0002743D02*
X0108116Y0002743D01*
X0108783Y0002743D01*
X0108749Y0002705D02*
X0108116Y0002705D01*
X0107236Y0002705D01*
X0107272Y0002667D02*
X0108116Y0002667D01*
X0108716Y0002667D01*
X0108679Y0002629D02*
X0108116Y0002629D01*
X0107309Y0002629D01*
X0107443Y0002591D02*
X0108116Y0002591D01*
X0108523Y0002591D01*
X0108367Y0002553D02*
X0108116Y0002553D01*
X0107612Y0002553D01*
X0107781Y0002515D02*
X0108116Y0002515D01*
X0108211Y0002515D01*
X0108046Y0002477D02*
X0107950Y0002477D01*
X0108116Y0002970D02*
X0106980Y0002970D01*
X0107616Y0003273D02*
X0107478Y0003840D01*
X0108080Y0004561D02*
X0108116Y0004561D01*
X0108252Y0004485D02*
X0109139Y0004485D01*
X0109162Y0004447D02*
X0108340Y0004447D01*
X0108365Y0004409D02*
X0109170Y0004409D01*
X0109174Y0004371D02*
X0108375Y0004371D01*
X0108384Y0004334D02*
X0109179Y0004334D01*
X0109183Y0004296D02*
X0108394Y0004296D01*
X0108403Y0004258D02*
X0109187Y0004258D01*
X0109192Y0004220D02*
X0108413Y0004220D01*
X0108422Y0004182D02*
X0109196Y0004182D01*
X0109201Y0004144D02*
X0108432Y0004144D01*
X0108441Y0004106D02*
X0109205Y0004106D01*
X0109209Y0004068D02*
X0108451Y0004068D01*
X0108460Y0004031D02*
X0109214Y0004031D01*
X0109218Y0003993D02*
X0108470Y0003993D01*
X0108479Y0003955D02*
X0109222Y0003955D01*
X0109227Y0003917D02*
X0108489Y0003917D01*
X0108493Y0003879D02*
X0109231Y0003879D01*
X0109228Y0003841D02*
X0108485Y0003841D01*
X0108477Y0003803D02*
X0109221Y0003803D01*
X0109214Y0003765D02*
X0108469Y0003765D01*
X0108461Y0003727D02*
X0109208Y0003727D01*
X0109201Y0003690D02*
X0108452Y0003690D01*
X0108444Y0003652D02*
X0109194Y0003652D01*
X0109188Y0003614D02*
X0108436Y0003614D01*
X0108428Y0003576D02*
X0109181Y0003576D01*
X0109174Y0003538D02*
X0108420Y0003538D01*
X0108412Y0003500D02*
X0109167Y0003500D01*
X0109161Y0003462D02*
X0108403Y0003462D01*
X0108395Y0003424D02*
X0109154Y0003424D01*
X0109147Y0003387D02*
X0108387Y0003387D01*
X0108379Y0003349D02*
X0109141Y0003349D01*
X0109134Y0003311D02*
X0108371Y0003311D01*
X0108363Y0003273D02*
X0109127Y0003273D01*
X0109120Y0003235D02*
X0108320Y0003235D01*
X0108233Y0003197D02*
X0109114Y0003197D01*
X0109107Y0003159D02*
X0108145Y0003159D01*
X0109255Y0002553D02*
X0109255Y0002520D01*
X0109238Y0002520D01*
X0109255Y0002553D01*
X0109255Y0002520D01*
X0110080Y0002520D01*
X0110118Y0002591D02*
X0109280Y0002591D01*
X0109303Y0002629D02*
X0110138Y0002629D01*
X0110159Y0002667D02*
X0109326Y0002667D01*
X0109349Y0002705D02*
X0110179Y0002705D01*
X0110199Y0002743D02*
X0109372Y0002743D01*
X0109395Y0002780D02*
X0110220Y0002780D01*
X0110240Y0002818D02*
X0109418Y0002818D01*
X0109441Y0002856D02*
X0110261Y0002856D01*
X0110281Y0002894D02*
X0109464Y0002894D01*
X0109487Y0002932D02*
X0110301Y0002932D01*
X0110322Y0002970D02*
X0109510Y0002970D01*
X0109533Y0003008D02*
X0110342Y0003008D01*
X0110363Y0003046D02*
X0109556Y0003046D01*
X0109579Y0003083D02*
X0110383Y0003083D01*
X0110403Y0003121D02*
X0109602Y0003121D01*
X0109625Y0003159D02*
X0110424Y0003159D01*
X0110444Y0003197D02*
X0109648Y0003197D01*
X0109671Y0003235D02*
X0110465Y0003235D01*
X0110485Y0003273D02*
X0109694Y0003273D01*
X0109717Y0003311D02*
X0110505Y0003311D01*
X0110526Y0003349D02*
X0109740Y0003349D01*
X0106213Y0004826D02*
X0105162Y0004826D01*
X0105162Y0002515D02*
X0104200Y0002515D01*
M02*
