G75*
%MOIN*%
%OFA0B0*%
%FSLAX25Y25*%
%IPPOS*%
%LPD*%
%AMOC8*
5,1,8,0,0,1.08239X$1,22.5*
%
%ADD10C,0.07000*%
%ADD11OC8,0.07400*%
%ADD12OC8,0.06800*%
%ADD13C,0.00600*%
D10*
X0014779Y0013500D03*
X0024779Y0013500D03*
X0034779Y0013500D03*
X0044779Y0013500D03*
X0044779Y0043500D03*
X0034779Y0043500D03*
X0024779Y0043500D03*
X0014779Y0043500D03*
D11*
X0062279Y0046000D03*
X0072279Y0046000D03*
X0082279Y0046000D03*
X0082279Y0036000D03*
X0072279Y0036000D03*
X0062279Y0036000D03*
X0062279Y0026000D03*
X0072279Y0026000D03*
X0082279Y0026000D03*
X0082279Y0056000D03*
X0072279Y0056000D03*
X0062279Y0056000D03*
D12*
X0044779Y0058500D03*
X0034779Y0058500D03*
X0024779Y0058500D03*
X0014779Y0058500D03*
X0014779Y0028500D03*
X0024779Y0028500D03*
X0034779Y0028500D03*
X0044779Y0028500D03*
D13*
X0044879Y0028000D01*
X0053279Y0028000D01*
X0059879Y0021400D01*
X0064679Y0021400D01*
X0067679Y0024400D01*
X0067679Y0028000D01*
X0070679Y0031000D01*
X0074279Y0031000D01*
X0077279Y0034000D01*
X0077279Y0037600D01*
X0080879Y0041200D01*
X0084479Y0041200D01*
X0086879Y0043600D01*
X0086879Y0051400D01*
X0082279Y0056000D01*
X0072279Y0056000D02*
X0071879Y0056200D01*
X0067079Y0061000D01*
X0060479Y0061000D01*
X0058079Y0058600D01*
X0044879Y0058600D01*
X0044779Y0058500D01*
X0035879Y0050800D02*
X0067079Y0050800D01*
X0071879Y0046000D01*
X0072279Y0046000D01*
X0070679Y0041200D02*
X0077279Y0041200D01*
X0082079Y0046000D01*
X0082279Y0046000D01*
X0070679Y0041200D02*
X0067679Y0038200D01*
X0067679Y0034600D01*
X0064079Y0031000D01*
X0060479Y0031000D01*
X0058679Y0032800D01*
X0022679Y0032800D01*
X0018479Y0028600D01*
X0014879Y0028600D01*
X0014779Y0028500D01*
X0025079Y0036400D02*
X0062279Y0036400D01*
X0062279Y0036000D01*
X0076679Y0020200D02*
X0082079Y0025600D01*
X0082279Y0026000D01*
X0076679Y0020200D02*
X0025079Y0020200D01*
X0018479Y0013600D01*
X0014879Y0013600D01*
X0014779Y0013500D01*
X0025079Y0036400D02*
X0018479Y0043000D01*
X0014879Y0043000D01*
X0014779Y0043500D01*
X0028679Y0058000D02*
X0035879Y0050800D01*
X0028679Y0058000D02*
X0025079Y0058000D01*
X0024779Y0058500D01*
M02*
