%
M48
M72
T01C0.0320
T02C0.0400
%
T01
X1478Y2850
X2478Y2850
X3478Y2850
X4478Y2850
X4478Y5850
X3478Y5850
X2478Y5850
X1478Y5850
T02
X1478Y1350
X2478Y1350
X3478Y1350
X4478Y1350
X6228Y2600
X7228Y2600
X8228Y2600
X8228Y3600
X7228Y3600
X6228Y3600
X6228Y4600
X7228Y4600
X8228Y4600
X8228Y5600
X7228Y5600
X6228Y5600
X4478Y4350
X3478Y4350
X2478Y4350
X1478Y4350
M30
