G75*
%MOIN*%
%OFA0B0*%
%FSLAX25Y25*%
%IPPOS*%
%LPD*%
%AMOC8*
5,1,8,0,0,1.08239X$1,22.5*
%
%ADD10C,0.07000*%
%ADD11OC8,0.07400*%
%ADD12OC8,0.06800*%
%ADD13C,0.00600*%
D10*
X0014779Y0013500D03*
X0024779Y0013500D03*
X0034779Y0013500D03*
X0044779Y0013500D03*
X0044779Y0043500D03*
X0034779Y0043500D03*
X0024779Y0043500D03*
X0014779Y0043500D03*
D11*
X0062279Y0046000D03*
X0072279Y0046000D03*
X0082279Y0046000D03*
X0082279Y0036000D03*
X0072279Y0036000D03*
X0062279Y0036000D03*
X0062279Y0026000D03*
X0072279Y0026000D03*
X0082279Y0026000D03*
X0082279Y0056000D03*
X0072279Y0056000D03*
X0062279Y0056000D03*
D12*
X0044779Y0058500D03*
X0034779Y0058500D03*
X0024779Y0058500D03*
X0014779Y0058500D03*
X0014779Y0028500D03*
X0024779Y0028500D03*
X0034779Y0028500D03*
X0044779Y0028500D03*
D13*
X0048479Y0032800D02*
X0038879Y0032800D01*
X0028679Y0043000D01*
X0025079Y0043000D01*
X0024779Y0043500D01*
X0034779Y0043500D02*
X0035279Y0043000D01*
X0038879Y0043000D01*
X0047879Y0034000D01*
X0054479Y0034000D01*
X0062279Y0026200D01*
X0062279Y0026000D01*
X0059879Y0021400D02*
X0067679Y0021400D01*
X0072279Y0026000D01*
X0077279Y0024400D02*
X0077279Y0031000D01*
X0082279Y0036000D01*
X0072279Y0036000D02*
X0067679Y0040600D01*
X0061079Y0040600D01*
X0058679Y0043000D01*
X0044879Y0043000D01*
X0044779Y0043500D01*
X0050879Y0046000D02*
X0062279Y0046000D01*
X0050879Y0046000D02*
X0038879Y0058000D01*
X0035279Y0058000D01*
X0034779Y0058500D01*
X0022679Y0062800D02*
X0055679Y0062800D01*
X0062279Y0056200D01*
X0062279Y0056000D01*
X0048479Y0032800D02*
X0059879Y0021400D01*
X0066479Y0013600D02*
X0077279Y0024400D01*
X0066479Y0013600D02*
X0044879Y0013600D01*
X0044779Y0013500D01*
X0034779Y0013500D02*
X0034679Y0013600D01*
X0034679Y0028000D01*
X0034779Y0028500D01*
X0025079Y0028000D02*
X0024779Y0028500D01*
X0025079Y0028000D02*
X0025079Y0013600D01*
X0024779Y0013500D01*
X0018479Y0058600D02*
X0014879Y0058600D01*
X0014779Y0058500D01*
X0018479Y0058600D02*
X0022679Y0062800D01*
M02*
