G75*
%MOIN*%
%OFA0B0*%
%FSLAX25Y25*%
%IPPOS*%
%LPD*%
%AMOC8*
5,1,8,0,0,1.08239X$1,22.5*
%
%ADD10OC8,0.07400*%
%ADD11C,0.00600*%
%ADD12C,0.02700*%
D10*
X0008000Y0028500D03*
X0018000Y0028500D03*
X0028000Y0028500D03*
X0028000Y0038500D03*
X0018000Y0038500D03*
X0008000Y0038500D03*
X0074000Y0036000D03*
X0084000Y0036000D03*
X0094000Y0036000D03*
X0094000Y0026000D03*
X0084000Y0026000D03*
X0074000Y0026000D03*
X0074000Y0046000D03*
X0084000Y0046000D03*
X0094000Y0046000D03*
X0094000Y0056000D03*
X0084000Y0056000D03*
X0074000Y0056000D03*
D11*
X0069400Y0051400D01*
X0069400Y0043600D01*
X0060400Y0034600D01*
X0054400Y0034600D01*
X0043600Y0023800D01*
X0025600Y0023800D01*
X0023200Y0026200D01*
X0023200Y0030400D01*
X0020200Y0033400D01*
X0016000Y0033400D01*
X0011200Y0038200D01*
X0008200Y0038200D01*
X0008000Y0038500D01*
X0028000Y0038500D02*
X0028000Y0038800D01*
X0029200Y0040000D01*
X0054400Y0040000D01*
X0054400Y0050200D01*
X0065200Y0061000D01*
X0089200Y0061000D01*
X0094000Y0056200D01*
X0094000Y0056000D01*
X0094000Y0052600D01*
X0089200Y0047800D01*
X0089200Y0041200D01*
X0094000Y0036400D01*
X0094000Y0036000D01*
X0088600Y0028000D02*
X0085600Y0031000D01*
X0079000Y0031000D01*
X0074000Y0026000D01*
X0071800Y0021400D02*
X0068800Y0024400D01*
X0047800Y0024400D01*
X0031000Y0020200D02*
X0085000Y0020200D01*
X0088600Y0023800D01*
X0088600Y0028000D01*
X0084000Y0026000D02*
X0083800Y0025600D01*
X0079600Y0021400D01*
X0071800Y0021400D01*
X0074000Y0036000D02*
X0073600Y0036400D01*
X0073600Y0039400D01*
X0069400Y0043600D01*
X0057400Y0037000D02*
X0056800Y0037000D01*
X0056800Y0049000D01*
X0056800Y0037000D02*
X0036400Y0037000D01*
X0028000Y0028600D01*
X0028000Y0028500D01*
D12*
X0031000Y0020200D03*
X0047800Y0024400D03*
X0057400Y0037000D03*
X0054400Y0040000D03*
X0056800Y0049000D03*
M02*
