G75*
%MOIN*%
%OFA0B0*%
%FSLAX25Y25*%
%IPPOS*%
%LPD*%
%AMOC8*
5,1,8,0,0,1.08239X$1,22.5*
%
%ADD10OC8,0.08000*%
%ADD11R,0.05324X0.06112*%
%ADD12R,0.04931X0.04537*%
%ADD13R,0.04931X0.02175*%
%ADD14C,0.03300*%
D10*
X0008000Y0028500D03*
X0018000Y0028500D03*
X0028000Y0028500D03*
X0028000Y0038500D03*
X0018000Y0038500D03*
X0008000Y0038500D03*
X0074000Y0036000D03*
X0084000Y0036000D03*
X0094000Y0036000D03*
X0094000Y0026000D03*
X0084000Y0026000D03*
X0074000Y0026000D03*
X0074000Y0046000D03*
X0084000Y0046000D03*
X0094000Y0046000D03*
X0094000Y0056000D03*
X0084000Y0056000D03*
X0074000Y0056000D03*
D11*
X0056906Y0056000D03*
X0045094Y0056000D03*
D12*
X0033346Y0056000D03*
X0026654Y0056000D03*
X0019346Y0056000D03*
X0012654Y0056000D03*
D13*
X0039583Y0042457D03*
X0039583Y0039898D03*
X0039583Y0037339D03*
X0039583Y0034780D03*
X0039583Y0032220D03*
X0039583Y0029661D03*
X0039583Y0027102D03*
X0039583Y0024543D03*
X0062417Y0024543D03*
X0062417Y0027102D03*
X0062417Y0029661D03*
X0062417Y0032220D03*
X0062417Y0034780D03*
X0062417Y0037339D03*
X0062417Y0039898D03*
X0062417Y0042457D03*
D14*
X0031000Y0020200D03*
X0047800Y0024400D03*
X0057400Y0037000D03*
X0054400Y0040000D03*
X0056800Y0049000D03*
M02*
