G75*
%MOIN*%
%OFA0B0*%
%FSLAX25Y25*%
%IPPOS*%
%LPD*%
%AMOC8*
5,1,8,0,0,1.08239X$1,22.5*
%
%ADD10OC8,0.07400*%
%ADD11R,0.04724X0.05512*%
%ADD12R,0.04331X0.03937*%
%ADD13R,0.04331X0.01575*%
%ADD14C,0.00600*%
%ADD15C,0.02700*%
D10*
X0008000Y0028500D03*
X0018000Y0028500D03*
X0028000Y0028500D03*
X0028000Y0038500D03*
X0018000Y0038500D03*
X0008000Y0038500D03*
X0074000Y0036000D03*
X0084000Y0036000D03*
X0094000Y0036000D03*
X0094000Y0026000D03*
X0084000Y0026000D03*
X0074000Y0026000D03*
X0074000Y0046000D03*
X0084000Y0046000D03*
X0094000Y0046000D03*
X0094000Y0056000D03*
X0084000Y0056000D03*
X0074000Y0056000D03*
D11*
X0056906Y0056000D03*
X0045094Y0056000D03*
D12*
X0033346Y0056000D03*
X0026654Y0056000D03*
X0019346Y0056000D03*
X0012654Y0056000D03*
D13*
X0039583Y0042457D03*
X0039583Y0039898D03*
X0039583Y0037339D03*
X0039583Y0034780D03*
X0039583Y0032220D03*
X0039583Y0029661D03*
X0039583Y0027102D03*
X0039583Y0024543D03*
X0062417Y0024543D03*
X0062417Y0027102D03*
X0062417Y0029661D03*
X0062417Y0032220D03*
X0062417Y0034780D03*
X0062417Y0037339D03*
X0062417Y0039898D03*
X0062417Y0042457D03*
D14*
X0019600Y0016600D02*
X0008200Y0028000D01*
X0008000Y0028500D01*
X0013000Y0036400D02*
X0016000Y0033400D01*
X0021400Y0033400D01*
X0026200Y0028600D01*
X0028000Y0028600D01*
X0028000Y0028500D01*
X0029800Y0033400D02*
X0023200Y0033400D01*
X0018400Y0038200D01*
X0018000Y0038500D01*
X0013000Y0036400D02*
X0013000Y0040600D01*
X0025000Y0052600D01*
X0029800Y0052600D01*
X0039400Y0043000D01*
X0039583Y0042457D01*
X0040000Y0040000D02*
X0039583Y0039898D01*
X0040000Y0040000D02*
X0041800Y0040000D01*
X0053200Y0051400D01*
X0053200Y0059200D01*
X0056200Y0062200D01*
X0084400Y0062200D01*
X0089200Y0057400D01*
X0089200Y0053800D01*
X0092200Y0050800D01*
X0095800Y0050800D01*
X0100000Y0046600D01*
X0100000Y0032200D01*
X0094000Y0026200D01*
X0094000Y0026000D01*
X0089200Y0024400D02*
X0089200Y0028000D01*
X0092200Y0031000D01*
X0095800Y0031000D01*
X0098800Y0034000D01*
X0098800Y0038200D01*
X0096400Y0040600D01*
X0088600Y0040600D01*
X0084000Y0036000D01*
X0079000Y0034000D02*
X0079000Y0041200D01*
X0083800Y0046000D01*
X0084000Y0046000D01*
X0089200Y0050800D02*
X0094000Y0046000D01*
X0089200Y0050800D02*
X0071800Y0050800D01*
X0068200Y0047200D01*
X0068200Y0038800D01*
X0064600Y0035200D01*
X0062800Y0035200D01*
X0062417Y0034780D01*
X0062200Y0032800D02*
X0062417Y0032220D01*
X0062200Y0032800D02*
X0058000Y0032800D01*
X0052000Y0038800D01*
X0052000Y0041200D01*
X0057400Y0046600D01*
X0058000Y0046600D01*
X0072400Y0061000D01*
X0079000Y0061000D01*
X0084000Y0056000D01*
X0074000Y0056000D02*
X0062800Y0044800D01*
X0062800Y0043000D01*
X0062417Y0042457D01*
X0062200Y0040000D02*
X0062417Y0039898D01*
X0062200Y0040000D02*
X0054400Y0040000D01*
X0057400Y0037000D02*
X0062200Y0037000D01*
X0062417Y0037339D01*
X0069400Y0034600D02*
X0069400Y0041800D01*
X0073600Y0046000D01*
X0074000Y0046000D01*
X0056800Y0049000D02*
X0056800Y0055600D01*
X0056906Y0056000D01*
X0045094Y0056000D02*
X0044800Y0056200D01*
X0033400Y0056200D01*
X0033346Y0056000D01*
X0029800Y0058600D02*
X0029800Y0052600D01*
X0026654Y0056000D02*
X0026200Y0055600D01*
X0023200Y0052600D01*
X0017200Y0052600D01*
X0017200Y0047800D01*
X0008200Y0038800D01*
X0008000Y0038500D01*
X0018000Y0028500D02*
X0018400Y0028000D01*
X0028600Y0017800D01*
X0032200Y0017800D01*
X0033400Y0019000D01*
X0033400Y0022600D01*
X0037600Y0026800D01*
X0039400Y0026800D01*
X0039583Y0027102D01*
X0039400Y0029200D02*
X0037000Y0029200D01*
X0031000Y0023200D01*
X0031000Y0020200D01*
X0039583Y0024543D02*
X0040000Y0024400D01*
X0047800Y0024400D01*
X0050200Y0023200D02*
X0043600Y0016600D01*
X0019600Y0016600D01*
X0039400Y0029200D02*
X0039583Y0029661D01*
X0039583Y0032220D02*
X0040000Y0032200D01*
X0043600Y0032200D01*
X0050200Y0025600D01*
X0050200Y0023200D01*
X0047800Y0034600D02*
X0062200Y0020200D01*
X0085000Y0020200D01*
X0089200Y0024400D01*
X0082000Y0031000D02*
X0079000Y0028000D01*
X0079000Y0024400D01*
X0076000Y0021400D01*
X0071800Y0021400D01*
X0068800Y0024400D01*
X0062800Y0024400D01*
X0062417Y0024543D01*
X0062417Y0027102D02*
X0062800Y0027400D01*
X0068800Y0027400D01*
X0072400Y0031000D01*
X0076000Y0031000D01*
X0079000Y0034000D01*
X0082000Y0031000D02*
X0089200Y0031000D01*
X0094000Y0035800D01*
X0094000Y0036000D01*
X0069400Y0034600D02*
X0064600Y0029800D01*
X0062800Y0029800D01*
X0062417Y0029661D01*
X0047800Y0034600D02*
X0040000Y0034600D01*
X0039583Y0034780D01*
X0039400Y0037000D02*
X0039583Y0037339D01*
X0039400Y0037000D02*
X0033400Y0037000D01*
X0029800Y0033400D01*
X0017200Y0052600D02*
X0014200Y0055600D01*
X0013000Y0055600D01*
X0012654Y0056000D01*
X0019346Y0056000D02*
X0019600Y0056200D01*
X0021400Y0056200D01*
X0024400Y0059200D01*
X0029200Y0059200D01*
X0029800Y0058600D01*
D15*
X0056800Y0049000D03*
X0054400Y0040000D03*
X0057400Y0037000D03*
X0047800Y0024400D03*
X0031000Y0020200D03*
M02*
