%
M48
M72
T01C0.0240
T02C0.0320
T03C0.0400
%
T01
X15350Y2850
T02
X14350Y3100
X13350Y3100
X12350Y3100
X11350Y3100
X10350Y3100
X9350Y3100
X8350Y3100
X7350Y3100
X6350Y3100
X5350Y3100
X4350Y3100
X3350Y3100
X2350Y3100
X1350Y3100
X1350Y6100
X2350Y6100
X3350Y6100
X4350Y6100
X5350Y6100
X6350Y6100
X7350Y6100
X8350Y6100
X9350Y6100
X10350Y6100
X11350Y6100
X12350Y6100
X13350Y6100
X14350Y6100
T03
X1350Y1600
X2350Y1600
X3350Y1600
X4350Y1600
X5350Y1600
X6350Y1600
X7350Y1600
X8350Y1600
X9350Y1600
X10350Y1600
X11350Y1600
X12350Y1600
X13350Y1600
X14350Y1600
X16100Y2850
X17100Y2850
X18100Y2850
X18100Y3850
X17100Y3850
X16100Y3850
X14350Y4600
X13350Y4600
X12350Y4600
X11350Y4600
X10350Y4600
X9350Y4600
X8350Y4600
X7350Y4600
X6350Y4600
X5350Y4600
X4350Y4600
X3350Y4600
X2350Y4600
X1350Y4600
X16100Y4850
X17100Y4850
X18100Y4850
X18100Y5850
X17100Y5850
X16100Y5850
M30
