G75*
%MOIN*%
%OFA0B0*%
%FSLAX25Y25*%
%IPPOS*%
%LPD*%
%AMOC8*
5,1,8,0,0,1.08239X$1,22.5*
%
%ADD10OC8,0.08200*%
%ADD11C,0.08200*%
%ADD12C,0.06000*%
%ADD13C,0.04800*%
D10*
X0161000Y0028500D03*
X0171000Y0028500D03*
X0181000Y0028500D03*
X0181000Y0038500D03*
X0171000Y0038500D03*
X0161000Y0038500D03*
X0161000Y0048500D03*
X0171000Y0048500D03*
X0181000Y0048500D03*
X0181000Y0058500D03*
X0171000Y0058500D03*
X0161000Y0058500D03*
D11*
X0013500Y0016000D03*
X0023500Y0016000D03*
X0033500Y0016000D03*
X0043500Y0016000D03*
X0053500Y0016000D03*
X0063500Y0016000D03*
X0073500Y0016000D03*
X0083500Y0016000D03*
X0093500Y0016000D03*
X0103500Y0016000D03*
X0113500Y0016000D03*
X0123500Y0016000D03*
X0133500Y0016000D03*
X0143500Y0016000D03*
X0143500Y0046000D03*
X0133500Y0046000D03*
X0123500Y0046000D03*
X0113500Y0046000D03*
X0103500Y0046000D03*
X0093500Y0046000D03*
X0083500Y0046000D03*
X0073500Y0046000D03*
X0063500Y0046000D03*
X0053500Y0046000D03*
X0043500Y0046000D03*
X0033500Y0046000D03*
X0023500Y0046000D03*
X0013500Y0046000D03*
D12*
X0013500Y0033600D02*
X0013500Y0028400D01*
X0023500Y0028400D02*
X0023500Y0033600D01*
X0033500Y0033600D02*
X0033500Y0028400D01*
X0043500Y0028400D02*
X0043500Y0033600D01*
X0053500Y0033600D02*
X0053500Y0028400D01*
X0063500Y0028400D02*
X0063500Y0033600D01*
X0073500Y0033600D02*
X0073500Y0028400D01*
X0083500Y0028400D02*
X0083500Y0033600D01*
X0093500Y0033600D02*
X0093500Y0028400D01*
X0103500Y0028400D02*
X0103500Y0033600D01*
X0113500Y0033600D02*
X0113500Y0028400D01*
X0123500Y0028400D02*
X0123500Y0033600D01*
X0133500Y0033600D02*
X0133500Y0028400D01*
X0143500Y0028400D02*
X0143500Y0033600D01*
X0143500Y0058400D02*
X0143500Y0063600D01*
X0133500Y0063600D02*
X0133500Y0058400D01*
X0123500Y0058400D02*
X0123500Y0063600D01*
X0113500Y0063600D02*
X0113500Y0058400D01*
X0103500Y0058400D02*
X0103500Y0063600D01*
X0093500Y0063600D02*
X0093500Y0058400D01*
X0083500Y0058400D02*
X0083500Y0063600D01*
X0073500Y0063600D02*
X0073500Y0058400D01*
X0063500Y0058400D02*
X0063500Y0063600D01*
X0053500Y0063600D02*
X0053500Y0058400D01*
X0043500Y0058400D02*
X0043500Y0063600D01*
X0033500Y0063600D02*
X0033500Y0058400D01*
X0023500Y0058400D02*
X0023500Y0063600D01*
X0013500Y0063600D02*
X0013500Y0058400D01*
D13*
X0153500Y0028500D03*
M02*
