G75*
%MOIN*%
%OFA0B0*%
%FSLAX25Y25*%
%IPPOS*%
%LPD*%
%AMOC8*
5,1,8,0,0,1.08239X$1,22.5*
%
%ADD10OC8,0.07400*%
%ADD11C,0.07400*%
%ADD12C,0.05200*%
%ADD13C,0.01000*%
%ADD14C,0.04000*%
D10*
X0161000Y0028500D03*
X0171000Y0028500D03*
X0181000Y0028500D03*
X0181000Y0038500D03*
X0171000Y0038500D03*
X0161000Y0038500D03*
X0161000Y0048500D03*
X0171000Y0048500D03*
X0181000Y0048500D03*
X0181000Y0058500D03*
X0171000Y0058500D03*
X0161000Y0058500D03*
D11*
X0013500Y0016000D03*
X0023500Y0016000D03*
X0033500Y0016000D03*
X0043500Y0016000D03*
X0053500Y0016000D03*
X0063500Y0016000D03*
X0073500Y0016000D03*
X0083500Y0016000D03*
X0093500Y0016000D03*
X0103500Y0016000D03*
X0113500Y0016000D03*
X0123500Y0016000D03*
X0133500Y0016000D03*
X0143500Y0016000D03*
X0143500Y0046000D03*
X0133500Y0046000D03*
X0123500Y0046000D03*
X0113500Y0046000D03*
X0103500Y0046000D03*
X0093500Y0046000D03*
X0083500Y0046000D03*
X0073500Y0046000D03*
X0063500Y0046000D03*
X0053500Y0046000D03*
X0043500Y0046000D03*
X0033500Y0046000D03*
X0023500Y0046000D03*
X0013500Y0046000D03*
D12*
X0013500Y0033600D02*
X0013500Y0028400D01*
X0023500Y0028400D02*
X0023500Y0033600D01*
X0033500Y0033600D02*
X0033500Y0028400D01*
X0043500Y0028400D02*
X0043500Y0033600D01*
X0053500Y0033600D02*
X0053500Y0028400D01*
X0063500Y0028400D02*
X0063500Y0033600D01*
X0073500Y0033600D02*
X0073500Y0028400D01*
X0083500Y0028400D02*
X0083500Y0033600D01*
X0093500Y0033600D02*
X0093500Y0028400D01*
X0103500Y0028400D02*
X0103500Y0033600D01*
X0113500Y0033600D02*
X0113500Y0028400D01*
X0123500Y0028400D02*
X0123500Y0033600D01*
X0133500Y0033600D02*
X0133500Y0028400D01*
X0143500Y0028400D02*
X0143500Y0033600D01*
X0143500Y0058400D02*
X0143500Y0063600D01*
X0133500Y0063600D02*
X0133500Y0058400D01*
X0123500Y0058400D02*
X0123500Y0063600D01*
X0113500Y0063600D02*
X0113500Y0058400D01*
X0103500Y0058400D02*
X0103500Y0063600D01*
X0093500Y0063600D02*
X0093500Y0058400D01*
X0083500Y0058400D02*
X0083500Y0063600D01*
X0073500Y0063600D02*
X0073500Y0058400D01*
X0063500Y0058400D02*
X0063500Y0063600D01*
X0053500Y0063600D02*
X0053500Y0058400D01*
X0043500Y0058400D02*
X0043500Y0063600D01*
X0033500Y0063600D02*
X0033500Y0058400D01*
X0023500Y0058400D02*
X0023500Y0063600D01*
X0013500Y0063600D02*
X0013500Y0058400D01*
D13*
X0068500Y0061000D02*
X0073500Y0061000D01*
X0068500Y0061000D02*
X0068500Y0013500D01*
X0073500Y0008500D01*
X0186000Y0008500D01*
X0186000Y0053500D01*
X0181000Y0058500D01*
X0171000Y0058500D02*
X0166000Y0053500D01*
X0131000Y0053500D01*
X0123500Y0061000D01*
X0123500Y0051000D02*
X0113500Y0061000D01*
X0093500Y0061000D02*
X0086000Y0053500D01*
X0078500Y0053500D01*
X0078500Y0043500D01*
X0076000Y0041000D01*
X0073500Y0041000D01*
X0073500Y0031000D01*
X0086000Y0023500D02*
X0088500Y0026000D01*
X0088500Y0046000D01*
X0093500Y0046000D01*
X0103500Y0046000D02*
X0111000Y0038500D01*
X0116000Y0038500D01*
X0118500Y0036000D01*
X0118500Y0023500D01*
X0148500Y0023500D01*
X0153500Y0028500D01*
X0161000Y0028500D02*
X0151000Y0038500D01*
X0121000Y0038500D01*
X0113500Y0046000D01*
X0123500Y0046000D02*
X0128500Y0041000D01*
X0156000Y0041000D01*
X0158500Y0043500D01*
X0166000Y0043500D01*
X0171000Y0038500D01*
X0166000Y0033500D02*
X0161000Y0038500D01*
X0166000Y0033500D02*
X0166000Y0021000D01*
X0078500Y0021000D01*
X0073500Y0016000D01*
X0083500Y0016000D02*
X0088500Y0011000D01*
X0176000Y0011000D01*
X0176000Y0033500D01*
X0181000Y0038500D01*
X0161000Y0048500D02*
X0158500Y0051000D01*
X0123500Y0051000D01*
X0086000Y0023500D02*
X0081000Y0023500D01*
X0078500Y0021000D01*
D14*
X0153500Y0028500D03*
M02*
